<svg width="225" height="22" viewBox="0 0 225 22" fill="none" xmlns="http://www.w3.org/2000/svg">
<path d="M94.0149 3.31393L88.9187 20.8108H86.5122L82.5202 6.62644L78.1602 20.8108H75.7536L71.0255 3.4838C70.7141 2.40795 70.4027 1.95495 69.44 1.95495H68.4208V0.992342H75.8952V1.95495H74.3097C73.6302 1.95495 73.4887 2.35132 73.6869 3.17237L77.7638 18.4326L81.9257 4.44641L81.6425 3.4838C81.3594 2.40795 81.0197 1.95495 80.3402 1.95495H79.0095V0.992342H86.4839V1.95495H84.9267C84.2472 1.95495 84.0774 2.35132 84.2756 3.17237L88.4374 18.3759L92.7409 3.17237C92.9957 2.20976 92.7975 1.95495 92.118 1.95495H90.759V0.992342H96.563V1.95495H95.2606C94.7227 1.95495 94.3263 2.26639 94.0149 3.31393Z" fill="#CEEAD5"/>
<path d="M109.044 16.3092C108.393 19.3952 106.27 21.0939 102.901 21.0939C98.937 21.0939 95.851 18.4043 95.851 13.7611C95.851 9.1179 98.8804 6.42826 102.703 6.42826C106.383 6.42826 109.243 8.91972 109.243 13.5629H98.5406C98.5406 13.7611 98.5406 13.9593 98.5689 14.1575C98.6256 18.0079 100.353 20.0747 103.269 20.0747C103.552 20.0747 103.835 20.0464 104.09 20.018C106.157 19.7915 107.431 18.5741 107.969 16.3092H109.044ZM102.731 7.36256C100.239 7.36256 98.7954 9.17453 98.5973 12.6286H106.779C106.695 9.14622 105.279 7.36256 102.731 7.36256Z" fill="#CEEAD5"/>
<path d="M135.324 14.1575C134.786 18.4892 131.671 21.0939 127.623 21.0939C122.159 21.0939 118.167 17.0453 118.167 10.9016C118.167 5.04097 121.762 0.709222 127.396 0.709222C130.143 0.709222 132.294 1.81339 133.738 4.27654L133.908 0.992342H135.041V7.41918H133.767C132.946 3.90849 130.935 1.78508 127.566 1.78508C123.065 1.78508 121.054 5.43734 121.054 10.8733C121.054 16.6489 123.546 19.9331 127.849 19.9331C131.105 19.9331 133.71 17.8946 134.163 14.1575H135.324Z" fill="#CEEAD5"/>
<path d="M152.607 13.7611C152.607 18.4043 149.55 21.0939 145.643 21.0939C141.764 21.0939 138.678 18.4043 138.678 13.7611C138.678 9.1179 141.764 6.42826 145.643 6.42826C149.55 6.42826 152.607 9.1179 152.607 13.7611ZM141.424 13.7328C141.424 17.923 142.896 20.1879 145.643 20.1879C148.417 20.1879 149.889 17.923 149.889 13.7328C149.889 9.59921 148.417 7.36256 145.643 7.36256C142.896 7.36256 141.424 9.59921 141.424 13.7328Z" fill="#CEEAD5"/>
<path d="M161.659 19.9048V20.8108H154.836V19.9048H156.421C156.902 19.9048 157.129 19.5934 157.129 18.9988V8.52335C157.129 7.9288 156.902 7.64568 156.421 7.64568H154.836V6.71138H159.62V9.5709H159.762C161.149 7.75892 162.905 6.42826 165.283 6.42826C168.199 6.42826 169.841 8.09867 169.841 11.0714V19.0271C169.841 19.6217 170.068 19.9048 170.577 19.9048H172.134V20.8108H165.311V19.9048H166.557C167.038 19.9048 167.265 19.5934 167.265 18.9705V10.76C167.265 8.83478 166.33 7.7023 164.49 7.7023C162.423 7.7023 160.809 9.23115 159.705 11.1847V18.9705C159.705 19.5934 159.903 19.9048 160.413 19.9048H161.659Z" fill="#CEEAD5"/>
<path d="M186.43 16.8188C186.43 19.6217 184.109 21.0939 181.164 21.0939C178.984 21.0939 177.286 20.2445 175.955 18.7723L175.672 20.8108H174.653V16.5357H175.813C176.663 18.5175 178.305 20.0747 180.938 20.0747C182.891 20.0747 184.307 19.2253 184.307 17.47C184.307 13.2798 174.653 15.7712 174.653 10.3353C174.653 7.95711 176.634 6.42826 179.551 6.42826C181.561 6.42826 183.203 7.19268 184.448 8.55166L184.675 6.71138H185.694V10.6751H184.533C183.826 8.83478 182.042 7.41918 179.607 7.41918C177.71 7.41918 176.691 8.32517 176.691 9.65583C176.691 13.2798 186.43 10.9582 186.43 16.8188Z" fill="#CEEAD5"/>
<path d="M203.137 6.71138V18.9988C203.137 19.5934 203.363 19.9048 203.873 19.9048H205.43V20.8108H200.645V18.0079H200.504C199.117 19.7916 197.418 21.0939 195.153 21.0939C192.548 21.0939 190.963 19.5934 190.963 16.6489V8.49504C190.963 7.90049 190.736 7.64568 190.255 7.64568H188.669V6.71138H193.539V16.6489C193.539 18.7157 194.417 19.8199 196.115 19.8199C198.012 19.8199 199.513 18.3476 200.589 16.5923V8.55166C200.589 7.9288 200.362 7.64568 199.853 7.64568H197.984V6.71138H203.137Z" fill="#CEEAD5"/>
<path d="M211.846 0.426102V18.9705C211.846 19.5934 212.072 19.9048 212.582 19.9048H214.139V20.8108H207.004V19.9048H208.562C209.071 19.9048 209.298 19.5934 209.298 18.9988V2.23807C209.298 1.64352 209.071 1.33209 208.562 1.33209H207.004V0.426102H211.846Z" fill="#CEEAD5"/>
<path d="M224.887 17.8097C224.887 19.8482 223.726 21.0939 221.574 21.0939C219.083 21.0939 217.837 19.9614 217.837 17.1019V7.64568H215.544V6.71138H216.705C217.979 6.71138 218.573 6.37163 218.828 4.55966L219.026 3.14406H220.385V6.71138H225V7.64568H220.385V17.6115C220.385 19.3952 221.008 19.9614 222.112 19.9614C223.188 19.9614 223.952 19.3952 223.952 17.7248V16.3092H224.887V17.8097Z" fill="#CEEAD5"/>
<circle cx="9.64707" cy="11.2528" r="9.64707" fill="#AAC5B5"/>
<rect opacity="0.8" x="22.9118" y="1.60576" width="31.353" height="19.2941" rx="9.64707" fill="#CEEAD5"/>
</svg>
