<?xml version="1.0" encoding="UTF-8"?>
<svg id="Layer_1" xmlns="http://www.w3.org/2000/svg" version="1.1" viewBox="0 0 600 191">
  <!-- Generator: Adobe Illustrator 29.8.1, SVG Export Plug-In . SVG Version: 2.1.1 Build 2)  -->
  <defs>
    <style>
      .st0 {
        fill: #147e5d;
      }

      .st1 {
        fill: #fff;
      }
    </style>
  </defs>
  <path class="st0" d="M462.16,1.64s0-.07.01-.11v-.23s0-.09-.01-.13c0-.03-.01-.07-.02-.1,0-.04-.02-.09-.03-.13,0,0,0-.03-.01-.04,0-.02-.02-.03-.02-.05-.02-.04-.04-.08-.06-.12-.02-.03-.04-.06-.05-.09-.02-.03-.05-.07-.07-.1-.02-.03-.05-.06-.07-.09-.03-.03-.06-.05-.09-.08s-.06-.05-.09-.08c-.01,0-.02-.02-.03-.03-.02-.01-.04-.02-.06-.04-.04-.02-.07-.04-.1-.06-.04-.02-.08-.03-.11-.05-.04,0-.07-.03-.11-.04-.04,0-.08-.02-.13-.03-.04,0-.07,0-.1-.02-.05,0-.09,0-.14,0h-.1c-.06,0-.11,0-.16.02h-.07l-36.09,7.5c-.51.11-.92.48-1.05.97-.14.49.02,1.02.4,1.36l7.99,7.21,2.68,11.85c.02.07.04.15.07.21,0,0,0,.02.01.02.03.07.07.13.1.19.01.02.03.04.05.06.03.05.08.1.12.14,0,.01.02.02.03.03s.02.02.03.02c.05.04.09.08.14.12.02.01.04.03.06.04.07.04.14.08.22.11.01,0,.03,0,.04.01.06.02.13.04.2.06.03,0,.06.01.09.01s.07.01.11.02h.09c.08,0,.16-.01.24-.02.02,0,.05-.01.07-.02.06-.01.11-.03.16-.05.03-.01.05-.02.08-.03.06-.02.11-.05.16-.08.02-.01.04-.02.06-.03.07-.04.14-.1.2-.16h0l4.11-4.03,6.39,6.72c.26.28.63.43,1.01.43.08,0,.17,0,.25-.02.46-.09.85-.4,1.03-.82l12.49-29.99v-.02s.02-.07.03-.11.02-.08.04-.11v.02ZM451.09,8.17l-13.44,11.96s-.02.03-.04.04c-.03.03-.06.07-.09.1s-.06.07-.08.11-.05.07-.07.11c-.02.04-.04.09-.06.13,0,.02-.02.03-.02.05l-1.15,3.1-1.52-6.71,16.47-8.91v.02Z"/>
  <path class="st1" d="M599.19,56.87h-33.17c.18,10.78,7.86,17.05,18.08,17.05,5.42,0,10.67-1.5,14.82-4.68h.27l-4.52,8.31c-3.89,1.59-8.22,2.21-12.47,2.21-15.37,0-25.94-9.46-25.94-21.74s9.13-21.21,22.6-21.21c12.29,0,20.7,8.66,20.34,20.06h-.01ZM566.38,51.74h23.32c-.99-6.19-5.15-9.1-11.66-9.1-6.06,0-10.58,3.53-11.66,9.1h0Z"/>
  <path class="st1" d="M525.35,36.81h26.81l-2.05,4.51c-.71,1.56-.89,2.08-2.85,2.08-3.12,0-6.15-.69-9.17-1.13,3.74,2.34,6.32,6.07,6.32,10.49,0,9.79-10.87,12.82-18.97,13.52-1.25.09-3.65.87-3.65,2.34,0,1.91,4.19,1.65,5.34,1.65,15.41,0,23.6,4.07,23.6,12.65,0,9.79-11.13,15.25-25.03,15.25-13.09,0-24.67-4.94-24.67-12.31,0-4.85,4.01-7.02,8.55-7.02,1.87,0,3.39.35,5.08,1.13-2.23.43-3.39,1.65-3.39,3.9,0,7.28,8.91,8.58,14.7,8.58s15.77-1.65,15.77-8.93-12.74-8.06-18.17-8.06l-6.15.17c-3.92.09-6.5-3.03-6.5-6.15,0-2.51,5.17-3.73,7.04-4.59-6.41-1.21-11.76-6.85-11.76-13.34,0-10.05,9.98-14.73,19.15-14.73h0ZM515.2,50.16c0,5.63,5.17,10.4,10.96,10.4,5.34,0,9.26-3.38,9.26-8.41,0-5.55-4.81-9.62-11.13-9.62-4.9,0-9.08,2.6-9.08,7.63h-.01Z"/>
  <path class="st1" d="M481.84,21.83h6.15c2.08,0,4.25,0,5.25-1.38h.27v48.69c0,3.97-.54,7.17,3.44,9.24v.26h-11.67v-18.47c0-3.45.27-7.25-1.45-10.45-2.26-4.14-6.87-6.22-11.67-6.22-7.24,0-13.12,6.3-13.12,14.16,0,8.72,6.51,16.4,16.01,16.4,2.89,0,5.34-1.04,7.78-2.5l-5.34,7.77c-1.54.43-3.08.43-4.7.43-13.21,0-22.89-8.03-22.89-20.89,0-11.65,9.05-21.06,21.44-21.06,5.07,0,10.13,1.81,13.93,5.01v-11.4c0-3.97.54-7.08-3.44-9.32v-.26h.01Z"/>
  <path class="st1" d="M429.46,38.19h5.23c1.97,0,4.11-.09,5.57-1.37h.26v31.36c0,3.95-.51,7.13,3.26,9.28v.26h-14.32v-.26c3.77-2.15,3.26-5.33,3.26-9.28v-20.54c0-3.95.52-7.05-3.26-9.19v-.26h0Z"/>
  <path class="st1" d="M400.92,37.93h5.55c1.99,0,4.08-.09,5.29-1.12h.26v6.57c1.91-3.89,5.9-6.57,10.23-6.57l3.12.26v7.96c-.95-1.04-2.51-1.38-3.99-1.38-6.59,0-9.37,3.46-9.37,12.37v12.11c0,3.98-.52,7.18,3.3,9.34v.26h-14.48v-.26c3.82-2.16,3.29-5.36,3.29-9.34v-20.67c0-3.98.52-7.09-3.21-9.25v-.28Z"/>
  <path class="st1" d="M351.72,65.44v-32.8c0-3.92.65-10.27-4.07-11.92v-.26h21.9c12.2,0,19.31,4.87,19.31,12.62,0,5.83-3.97,9.14-9.24,11.31,8.32,1.65,15.06,6.87,15.06,15.4,0,6.7-4.9,12.44-11.09,15.23-6.47,2.96-13.77,2.7-20.7,2.7h-15.25v-.26c4.62-1.65,4.07-8.01,4.07-12.01h.01ZM361.15,70.74l8.04.7c7.58.7,15.25-2.61,15.25-10.88s-8.69-12.1-16.82-11.66l-6.47.35v21.49ZM361.15,43.51h3.05c6.01,0,14.6-1.91,14.6-9.05,0-6-5.91-9.14-11.46-8.61l-6.19.61v17.05Z"/>
  <path class="st0" d="M283.41,37.96h5.72c1.91,0,3.99-.17,5.2-1.13h.26v6.15c2.95-4.07,9.36-6.15,14.22-6.15,12.05,0,19.85,9.28,19.85,20.63,0,12.05-8.76,21.5-20.89,21.5-2.25,0-4.42-.35-6.41-1.13l-4.68-7.11c3.03,1.47,6.15,2.51,9.45,2.51,9.19,0,13.78-6.15,13.78-14.82,0-8.06-4.33-15.52-13.26-15.52-3.64,0-7.19,1.47-9.62,4.16-2.51,2.69-2.43,5.81-2.43,9.28v29.73c0,3.99-.52,7.11,3.29,9.28v.26h-14.48v-.26c3.81-2.17,3.29-5.29,3.29-9.28v-38.57c0-3.99.52-7.19-3.29-9.28v-.26h0Z"/>
  <path class="st0" d="M281.64,73.24l-3.81,5.72c-5.72-.35-11.44-2.08-11.44-9.02v-13.7c-2.51,1.3-5.46,1.99-8.32,2.69-4.16.95-8.84,1.91-8.84,7.19s4.85,7.11,9.45,7.11c2.08,0,4.16-.61,6.24-1.21l-5.11,6.5c-1.47.26-3.03.43-4.51.43-8.75,0-14.82-5.55-14.82-12.74,0-16.12,25.92-8.67,25.92-18.12,0-4.16-5.11-5.55-8.32-5.55-4.42,0-7.89,1.65-11.79,3.47l5.81-8.67,5.63-.52c9.36,0,16.47,2.69,16.56,13.18v13c0,6.85.17,9.45,7.37,10.23h-.02Z"/>
  <path class="st0" d="M237.47,56.51h-31.81c.17,10.58,7.54,16.73,17.34,16.73,5.2,0,10.23-1.47,14.22-4.59h.26l-4.34,8.15c-3.73,1.56-7.89,2.17-11.96,2.17-14.74,0-24.88-9.28-24.88-21.32s8.76-20.8,21.67-20.8c11.79,0,19.85,8.49,19.5,19.68v-.02ZM206.01,51.48h22.36c-.95-6.07-4.94-8.93-11.18-8.93-5.81,0-10.14,3.47-11.18,8.93h0Z"/>
  <path class="st0" d="M165.57,70.81l11.79.78c5.89.35,11.01-1.65,15.34-5.29h.26l-4.51,11.53h-35.63v-.26c4.42-1.56,3.9-7.97,3.9-11.88v-32.68c0-3.99.52-10.32-3.9-11.96v-.26h16.56v.26c-4.42,1.65-3.81,8.06-3.81,11.96v37.79h0Z"/>
  <path class="st1" d="M569.38,121.65h29.48l-2.25,5.09c-.78,1.76-.98,2.35-3.14,2.35-3.43,0-6.76-.78-10.09-1.27,4.11,2.64,6.96,6.86,6.96,11.85,0,11.07-11.95,14.5-20.86,15.28-1.37.1-4.02.98-4.02,2.64,0,2.15,4.6,1.86,5.88,1.86,16.95,0,25.96,4.6,25.96,14.3,0,11.07-12.24,17.24-27.52,17.24-14.4,0-27.13-5.58-27.13-13.91,0-5.49,4.41-7.93,9.4-7.93,2.06,0,3.72.39,5.58,1.27-2.45.49-3.72,1.86-3.72,4.41,0,8.23,9.8,9.7,16.16,9.7s17.34-1.86,17.34-10.09-14.01-9.11-19.98-9.11l-6.76.2c-4.31.1-7.15-3.43-7.15-6.96,0-2.84,5.68-4.21,7.74-5.19-7.05-1.37-12.93-7.74-12.93-15.08,0-11.36,10.97-16.65,21.06-16.65h-.01ZM558.21,136.73c0,6.37,5.68,11.75,12.05,11.75,5.88,0,10.19-3.82,10.19-9.5,0-6.27-5.29-10.87-12.24-10.87-5.39,0-9.99,2.94-9.99,8.62h-.01Z"/>
  <path class="st1" d="M492.48,122.92h5.78c2.15,0,4.51-.1,6.56-1.27h.29v7.54c3.43-4.7,7.44-7.54,13.81-7.54,5.49,0,11.75,2.15,14.89,6.76,2.74,3.92,2.45,9.99,2.45,14.6v14.2c0,4.51-.59,8.03,3.72,10.48v.29h-16.36v-.29c4.31-2.45,3.72-6.07,3.72-10.48v-13.22c0-10.48-2.94-15.87-11.85-15.87s-10.38,5.98-10.38,11.75v17.34c0,4.51-.59,8.03,3.72,10.48v.29h-16.36v-.29c4.31-2.45,3.72-6.07,3.72-10.58v-23.31c0-4.51.59-8.13-3.72-10.58v-.29h0Z"/>
  <path class="st1" d="M469.44,122.92h5.98c2.25,0,4.7-.1,6.37-1.57h.29v35.75c0,4.51-.59,8.13,3.72,10.58v.29h-16.36v-.29c4.31-2.45,3.72-6.07,3.72-10.58v-23.41c0-4.51.59-8.03-3.72-10.48v-.29ZM483.15,110.88c0,3.23-2.55,6.17-5.88,6.17-3.62,0-6.37-2.84-6.37-6.46,0-3.43,3.13-5.78,6.37-5.78s5.88,2.84,5.88,6.07Z"/>
  <path class="st1" d="M452.07,129.39v19.59c0,3.72-1.18,13.81,9.3,13.81,1.37,0,2.65-.49,3.92-.98l-5.19,6.95c-.98.29-2.06.49-3.14.49-15.18,0-13.81-15.67-13.81-19.49v-20.37h-6.66v-3.53c9.21-1.57,11.66-8.42,11.66-17.53h3.92v14.6h9.21c1.27,0,2.74,0,3.72-.59h.29v8.91h-.29c-1.57-2.06-4.51-1.86-7.05-1.86h-5.88Z"/>
  <path class="st1" d="M414.44,103.53h5.98c2.25,0,4.8.1,6.27-1.57h.29v55.15c0,4.51-.68,8.13,3.62,10.58v.29h-16.16v-.29c4.21-2.45,3.62-6.07,3.62-10.58v-42.71c0-4.51.59-8.13-3.62-10.58v-.29Z"/>
  <path class="st1" d="M392.49,122.92h4.99c2.55,0,5.58.39,7.35-1.27h.29v35.65c0,4.51-.59,8.13,3.72,10.38v.29h-12.64v-6.37c-3.53,5.39-7.25,7.64-14.11,7.64-11.56,0-17.04-6.56-17.04-20.37v-15.09c0-4.51.59-8.13-3.72-10.58v-.29h6.37c2.15,0,4.6-.1,5.97-1.27h.29v25.57c0,9.01,2.55,14.6,11.07,14.6,6.46,0,11.17-5.29,11.17-12.83v-15.08c0-4.6.59-8.13-3.72-10.68v-.29h0Z"/>
  <path class="st1" d="M351.07,122.92v8.33c-3.62-1.96-7.74-3.13-12.05-3.13-3.23,0-9.11.78-9.11,4.7,0,8.72,26.55,5.58,26.55,21.16,0,9.11-9.3,15.28-21.94,15.28-4.41,0-8.62-.69-12.73-2.35l-3.43-9.6c5.68,3.62,11.66,5.49,18.42,5.49,4.02,0,10.77-1.37,10.77-6.37,0-9.89-26.55-6.76-26.55-21.65,0-10.38,10.78-13.13,19.2-13.13,3.62,0,7.35.29,10.87,1.27h0Z"/>
  <path class="st1" d="M267.11,122.92h5.78c2.15,0,4.51-.1,6.56-1.27h.29v7.54c3.43-4.7,7.45-7.54,13.81-7.54,5.49,0,11.75,2.15,14.89,6.76,2.74,3.92,2.45,9.99,2.45,14.6v14.2c0,4.51-.59,8.03,3.72,10.48v.29h-16.36v-.29c4.31-2.45,3.72-6.07,3.72-10.48v-13.22c0-10.48-2.94-15.87-11.85-15.87s-10.38,5.98-10.38,11.75v17.34c0,4.51-.59,8.03,3.72,10.48v.29h-16.36v-.29c4.31-2.45,3.72-6.07,3.72-10.58v-23.31c0-4.51.59-8.13-3.72-10.58v-.29h.01Z"/>
  <path class="st1" d="M236.6,169.25c-13.42,0-24.78-9.5-24.78-23.41,0-14.69,11.85-24.19,25.96-24.19,6.27,0,11.66,1.67,16.36,5.78,5,4.41,8.03,10.87,8.03,17.53,0,14.1-11.75,24.29-25.57,24.29ZM237.09,162.79c9.01,0,15.18-6.96,15.18-15.77,0-9.5-5.09-18.9-15.57-18.9-9.11,0-14.99,7.15-14.99,15.97s5.39,18.71,15.38,18.71h0Z"/>
  <path class="st1" d="M204.99,104.41v11.26c-5.39-3.43-11.66-5.58-18.12-5.58-13.52,0-22.92,9.89-22.92,24.1s9.79,27.23,24.88,27.23c7.35,0,14.69-2.65,20.86-6.17h.29l-4.99,11.36c-4.6,2.15-9.7,2.94-14.79,2.94-23.12,0-37.42-12.93-37.42-33.89s14.3-33.7,34.38-33.7c5.97,0,12.05,1.08,17.83,2.45h0Z"/>
  <path class="st0" d="M23.7,32.3v79.22h61.15c6.54,0,11.84,5.3,11.84,11.84s-5.3,11.84-11.84,11.84H13.87c-7.37,0-13.84,1.39-13.84,6.9S.03,32.46.03,32.46C.03,25.92,5.33,20.63,11.86,20.62h11.84v11.68Z"/>
  <path class="st1" d="M85.22,77.4c13.61,0,24.26,6.15,31.47,12.6,17,15.21,24.35,46.18,6.2,68.86-8.15,7.23-18.54,10.85-31.17,10.85H0v-12.82c0-9.86,7.89-10.85,15.78-10.85h74.76c5,0,9.2-1.71,12.62-5.13,7.33-7.04,7.57-28.33.2-35.71-3.29-3.29-7.54-5.52-13.06-5.52h-19.29v-22.29h14.21ZM87.74,20.62c12.76,0,23.06,3.58,30.82,10.42,7.76,6.97,11.64,16.24,11.64,27.81,0,10.36-2.79,17.96-10.85,24.07-10.85-8.88-20.52-10.26-20.52-10.26,0,0,4.54-6.9,4.54-11.64s-1.64-8.68-4.93-11.84c-3.16-3.16-7.1-4.73-11.84-4.74h-24.26v55.23h-26.83l-.04-79.07h52.27v.02Z"/>
</svg>