<svg width="40" height="40" viewBox="0 0 40 40" fill="none" xmlns="http://www.w3.org/2000/svg">
<g clip-path="url(#clip0_155_3637)">
<path d="M29.4573 19.0124L26.2819 28.5387C26.1787 28.8483 25.9309 29.0881 25.6182 29.181L6.1558 34.9672C5.38032 35.1977 4.6663 34.4599 4.92214 33.6924L11.2411 14.7355C11.333 14.4598 11.5403 14.2377 11.809 14.127L20.7867 10.4303C21.16 10.2766 21.5891 10.3624 21.8746 10.6479L29.2157 17.9891C29.4836 18.2569 29.5771 18.6531 29.4573 19.0124Z" stroke="#1B3233" stroke-width="2.5" stroke-linecap="round" stroke-linejoin="round"/>
<path d="M5.49329 34.3359L16.0999 23.7293" stroke="#1B3233" stroke-width="2.5" stroke-linecap="round" stroke-linejoin="round"/>
<path d="M29.6528 18.426L34.3668 13.712C35.6686 12.4102 35.6686 10.2997 34.3668 8.99794L30.8313 5.4624C29.5295 4.16066 27.419 4.16066 26.1172 5.4624L21.4032 10.1764" stroke="#1B3233" stroke-width="2.5" stroke-linecap="round" stroke-linejoin="round"/>
<path d="M19.6354 20.1938C18.6591 19.2175 17.0762 19.2175 16.0999 20.1938C15.1236 21.1701 15.1236 22.753 16.0999 23.7293C17.0762 24.7056 18.6591 24.7056 19.6354 23.7293C20.6117 22.753 20.6117 21.1701 19.6354 20.1938Z" stroke="#1B3233" stroke-width="2.5" stroke-linecap="round" stroke-linejoin="round"/>
</g>
<defs>
<clipPath id="clip0_155_3637">
<rect width="40" height="40" fill="white"/>
</clipPath>
</defs>
</svg>
