<svg width="64" height="64" viewBox="0 0 64 64" fill="none" xmlns="http://www.w3.org/2000/svg">
<path d="M2.66675 53.3333V50.6667C2.66675 40.3574 11.0241 32 21.3334 32V32C31.6427 32 40.0001 40.3574 40.0001 50.6667V53.3333" stroke="#1B3233" stroke-width="4" stroke-linecap="round"/>
<path d="M34.6667 37.3333V37.3333C34.6667 29.9695 40.6363 24 48.0001 24V24C55.3639 24 61.3334 29.9695 61.3334 37.3333V38.6667" stroke="#1B3233" stroke-width="4" stroke-linecap="round"/>
<path d="M21.3334 31.9998C27.2245 31.9998 32.0001 27.2242 32.0001 21.3332C32.0001 15.4421 27.2245 10.6665 21.3334 10.6665C15.4424 10.6665 10.6667 15.4421 10.6667 21.3332C10.6667 27.2242 15.4424 31.9998 21.3334 31.9998Z" stroke="#1B3233" stroke-width="4" stroke-linecap="round" stroke-linejoin="round"/>
<path d="M48 24C52.4183 24 56 20.4183 56 16C56 11.5817 52.4183 8 48 8C43.5817 8 40 11.5817 40 16C40 20.4183 43.5817 24 48 24Z" stroke="#1B3233" stroke-width="4" stroke-linecap="round" stroke-linejoin="round"/>
</svg>
