<svg width="142" height="46" viewBox="0 0 142 46" fill="none" xmlns="http://www.w3.org/2000/svg">
<g clip-path="url(#clip0_475_547)">
<path d="M100.946 42.5672C101.808 42.5672 102.318 41.914 102.318 40.8927C102.318 39.8339 101.771 39.2182 100.964 39.2182C100.503 39.2182 100.183 39.4227 99.943 39.7476H99.9316V38.0743H99.4318V42.474H99.9316V42.056H99.943C100.202 42.4127 100.516 42.5672 100.946 42.5672ZM100.91 42.148C100.233 42.148 99.8998 41.6129 99.8998 40.8984C99.8998 40.21 100.22 39.6431 100.915 39.6431C101.519 39.6431 101.808 40.185 101.808 40.8984C101.808 41.6186 101.519 42.148 100.91 42.148ZM103.162 43.5271C103.55 43.5271 103.796 43.3908 104.054 42.7319L105.415 39.2921H104.886L104.159 41.2744C104.061 41.5391 103.95 41.8958 103.95 41.8958H103.938C103.938 41.8958 103.82 41.5391 103.722 41.2744L102.972 39.2921H102.43L103.672 42.382L103.55 42.6955C103.427 43.0034 103.285 43.084 103.076 43.084C102.959 43.09 102.843 43.0665 102.738 43.0159H102.713V43.4589C102.849 43.5146 102.972 43.5271 103.162 43.5271ZM106.691 42.474H107.528V38.0743H106.691V42.474ZM109.575 42.5672C110.553 42.5672 111.225 41.8401 111.225 40.8984C111.225 39.9566 110.554 39.2307 109.575 39.2307C108.597 39.2307 107.926 39.9578 107.926 40.8984C107.926 41.8413 108.596 42.5672 109.575 42.5672ZM109.575 41.9265C109.058 41.9265 108.775 41.5141 108.775 40.8984C108.775 40.2838 109.058 39.8646 109.575 39.8646C110.086 39.8646 110.375 40.2838 110.375 40.8984C110.375 41.5141 110.086 41.9265 109.575 41.9265ZM113.005 43.5509C113.473 43.5509 113.878 43.4407 114.143 43.1942C114.377 42.9784 114.519 42.6774 114.519 42.2343V39.3171H113.712V39.6499H113.7C113.509 39.3852 113.221 39.2307 112.825 39.2307C112.027 39.2307 111.46 39.8339 111.46 40.7757C111.46 41.7299 112.149 42.2832 112.851 42.2832C113.251 42.2832 113.491 42.1241 113.675 41.914H113.694V42.2593C113.694 42.6898 113.467 42.9182 112.992 42.9182C112.605 42.9182 112.426 42.7637 112.358 42.566H111.528C111.613 43.1817 112.142 43.5509 113.005 43.5509ZM112.993 41.6129C112.562 41.6129 112.278 41.2994 112.278 40.7632C112.278 40.2338 112.562 39.9021 112.987 39.9021C113.491 39.9021 113.737 40.2952 113.737 40.7575C113.737 41.2255 113.522 41.6129 112.992 41.6129H112.993ZM116.554 42.5672C117.532 42.5672 118.203 41.8401 118.203 40.8984C118.203 39.9566 117.532 39.2307 116.554 39.2307C115.574 39.2307 114.904 39.9578 114.904 40.8984C114.904 41.8413 115.574 42.5672 116.554 42.5672ZM116.554 41.9265C116.037 41.9265 115.753 41.5141 115.753 40.8984C115.753 40.2838 116.037 39.8646 116.554 39.8646C117.064 39.8646 117.353 40.2838 117.353 40.8984C117.353 41.5141 117.064 41.9265 116.554 41.9265ZM118.592 42.474H119.429V39.3171H118.592V42.474ZM118.592 38.8252H119.429V38.0743H118.592V38.8252ZM119.968 43.5078H120.806V42.1184H120.817C120.996 42.3899 121.285 42.5683 121.728 42.5683C122.54 42.5683 123.095 41.9208 123.095 40.8995C123.095 39.9146 122.56 39.2319 121.722 39.2319C121.54 39.2289 121.359 39.2712 121.197 39.3551C121.035 39.439 120.896 39.5617 120.793 39.7124H120.775V39.3182H119.968V43.51V43.5078ZM121.55 41.8719C121.051 41.8719 120.786 41.4959 120.786 40.9234C120.786 40.3576 120.996 39.9078 121.519 39.9078C122.036 39.9078 122.245 40.3258 122.245 40.9234C122.245 41.5209 121.975 41.8719 121.55 41.8719ZM124.765 42.5672C125.552 42.5672 126.094 42.1855 126.094 41.5516C126.094 40.8132 125.509 40.6655 124.979 40.5542C124.531 40.4622 124.112 40.4372 124.112 40.1668C124.112 39.9396 124.327 39.8146 124.653 39.8146C125.011 39.8146 125.226 39.9396 125.263 40.277H126.02C125.958 39.6431 125.497 39.2319 124.666 39.2319C123.946 39.2319 123.38 39.5568 123.38 40.2406C123.38 40.929 123.933 41.0835 124.5 41.1949C124.93 41.2801 125.33 41.3107 125.33 41.6129C125.33 41.8344 125.121 41.9764 124.752 41.9764C124.377 41.9764 124.118 41.8163 124.063 41.4527H123.288C123.337 42.123 123.848 42.5672 124.765 42.5672ZM129.272 42.474V39.3171H128.435V41.1392C128.435 41.5573 128.194 41.8526 127.801 41.8526C127.444 41.8526 127.277 41.6493 127.277 41.2801V39.3171H126.447V41.4221C126.447 42.1116 126.841 42.5603 127.542 42.5603C127.985 42.5603 128.232 42.3945 128.447 42.1059H128.466V42.474H129.272ZM129.813 42.474H130.65V40.6416C130.65 40.2225 130.877 39.9521 131.216 39.9521C131.524 39.9521 131.702 40.1373 131.702 40.494V42.4751H132.539V40.6416C132.539 40.2225 132.755 39.9521 133.106 39.9521C133.414 39.9521 133.592 40.1373 133.592 40.494V42.4751H134.43V40.352C134.43 39.6624 134.054 39.2319 133.389 39.2319C132.989 39.2319 132.656 39.4409 132.442 39.7862H132.429C132.353 39.6186 132.23 39.4767 132.075 39.3782C131.919 39.2797 131.738 39.2288 131.554 39.2319C131.37 39.2272 131.187 39.2722 131.026 39.3621C130.865 39.4521 130.731 39.5836 130.638 39.7431H130.62V39.3182H129.813V42.4763V42.474Z" fill="#1B3233" fill-opacity="0.8"/>
<path d="M134.594 2.7207C134.594 1.37681 135.684 0.286254 137.028 0.286254H138.651C139.297 0.286254 139.916 0.54274 140.373 0.999287C140.829 1.45583 141.086 2.07505 141.086 2.7207C141.086 3.36636 140.829 3.98557 140.373 4.44212C139.916 4.89866 139.297 5.15515 138.651 5.15515H137.028C136.708 5.15515 136.392 5.09217 136.096 4.96982C135.801 4.84746 135.533 4.66812 135.307 4.44205C135.081 4.21597 134.902 3.94759 134.779 3.65224C134.657 3.35688 134.594 3.04034 134.594 2.7207ZM66.4447 16.5129C66.4447 25.4736 59.1811 32.7384 50.2192 32.7384C41.2584 32.7384 33.9937 25.4736 33.9937 16.5129C33.9937 7.54984 41.2584 0.28739 50.2192 0.28739C59.1811 0.28739 66.4447 7.54984 66.4447 16.5129ZM30.8288 16.4322C31.7262 16.4322 32.4601 17.1593 32.3704 18.0522C32.0637 21.1078 30.8961 24.0137 29.0034 26.432C27.1106 28.8504 24.5704 30.682 21.678 31.7138C18.7855 32.7457 15.6597 32.9356 12.6636 32.2614C9.66754 31.5871 6.92434 30.0764 4.75283 27.9049C2.58131 25.7334 1.07064 22.9902 0.39639 19.9941C-0.277861 16.9981 -0.0880048 13.8722 0.943892 10.9798C1.97579 8.08733 3.80735 5.54713 6.22572 3.65439C8.64409 1.76165 11.5499 0.594081 14.6056 0.28739C15.4973 0.19651 16.2255 0.932638 16.2255 1.82781V14.8089C16.2255 15.7063 16.9526 16.4322 17.8489 16.4322H30.8288ZM89.1613 35.9839C90.4523 35.9839 91.6904 36.4968 92.6033 37.4096C93.5162 38.3225 94.029 39.5607 94.029 40.8517C94.029 42.1427 93.5162 43.3808 92.6033 44.2937C91.6904 45.2066 90.4523 45.7194 89.1613 45.7194H81.0491C79.7581 45.7194 78.5199 45.2066 77.6071 44.2937C76.6942 43.3808 76.1813 42.1427 76.1813 40.8517C76.1813 39.5607 76.6942 38.3225 77.6071 37.4096C78.5199 36.4968 79.7581 35.9839 81.0491 35.9839H89.1613ZM84.2935 32.7384C93.2554 32.7384 100.52 25.4736 100.52 16.5129C100.524 13.7603 99.8244 11.0524 98.4878 8.64608L101.169 5.96512C101.478 5.65616 101.723 5.28941 101.89 4.8858C102.057 4.48218 102.143 4.04962 102.142 3.61279C102.142 3.17597 102.056 2.74345 101.889 2.33991C101.722 1.93638 101.477 1.56975 101.168 1.26094C100.859 0.952136 100.492 0.707207 100.088 0.540139C99.6847 0.373072 99.2521 0.287138 98.8153 0.287243C98.3785 0.287349 97.946 0.373492 97.5424 0.540754C97.1389 0.708017 96.7723 0.953123 96.4635 1.26208L94.1233 3.60224C91.3001 1.446 87.8448 0.280538 84.2924 0.286254C75.3327 0.28739 68.0692 7.54984 68.0692 16.5129C68.0692 25.4736 75.3327 32.7384 84.2935 32.7384ZM134.594 16.5129C134.594 25.4736 127.33 32.7384 118.368 32.7384C109.407 32.7384 102.142 25.4736 102.142 16.5129C102.142 7.54984 109.407 0.28739 118.368 0.28739C127.33 0.28739 134.594 7.55097 134.594 16.5129Z" fill="#1B3233" fill-opacity="0.8"/>
</g>
<defs>
<clipPath id="clip0_475_547">
<rect width="142" height="45.44" fill="white" transform="translate(0 0.279297)"/>
</clipPath>
</defs>
</svg>
