<svg width="143" height="55" viewBox="0 0 143 55" fill="none" xmlns="http://www.w3.org/2000/svg">
<g clip-path="url(#clip0_475_534)">
<path d="M65.5566 47.9907H69.2806V33.9437H65.5566V47.9907ZM65.5566 31.753H69.2806V28.4124H65.5566V31.753Z" fill="#1B3233" fill-opacity="0.8"/>
<path d="M71.6802 52.5912H75.4042V46.4028H75.4591C76.253 47.6075 77.54 48.4017 79.5115 48.4017C83.126 48.4017 85.5904 45.5266 85.5904 40.9811C85.5904 36.5998 83.2082 33.5605 79.4842 33.5605C77.5674 33.5605 76.253 34.4641 75.3494 35.6962H75.2673V33.9438H71.6802V52.5912ZM78.7175 45.3074C76.4995 45.3074 75.322 43.6372 75.322 41.0906C75.322 38.5714 76.253 36.5724 78.5805 36.5724C80.8807 36.5724 81.8117 38.4344 81.8117 41.0906C81.8117 43.7467 80.6069 45.3074 78.7175 45.3074Z" fill="#1B3233" fill-opacity="0.8"/>
<path d="M93.019 48.4017C96.5239 48.4017 98.9335 46.7039 98.9335 43.8836C98.9335 40.5977 96.3323 39.9406 93.9774 39.4477C91.9784 39.0369 90.1164 38.9273 90.1164 37.7226C90.1164 36.7095 91.0748 36.1617 92.5261 36.1617C94.1143 36.1617 95.0726 36.7095 95.2369 38.2154H98.605C98.3311 35.3951 96.2775 33.5605 92.5809 33.5605C89.3771 33.5605 86.8579 35.0117 86.8579 38.0511C86.8579 41.1179 89.3224 41.8026 91.8415 42.2954C93.7583 42.6787 95.5381 42.8157 95.5381 44.1574C95.5381 45.1432 94.6071 45.7729 92.9641 45.7729C91.2939 45.7729 90.1438 45.0611 89.8974 43.4454H86.4471C86.6663 46.4302 88.939 48.4017 93.019 48.4017Z" fill="#1B3233" fill-opacity="0.8"/>
<path d="M113.072 47.9909V33.9438H109.348V42.0489C109.348 43.9109 108.281 45.2253 106.528 45.2253C104.94 45.2253 104.201 44.3217 104.201 42.6787V33.9438H100.504V43.3085C100.504 46.3753 102.256 48.3743 105.378 48.3743C107.35 48.3743 108.445 47.6349 109.403 46.3479H109.485V47.9909H113.072Z" fill="#1B3233" fill-opacity="0.8"/>
<path d="M115.481 47.9909H119.205V39.8309C119.205 37.9689 120.218 36.7642 121.724 36.7642C123.094 36.7642 123.888 37.5856 123.888 39.1738V47.9909H127.612V39.8309C127.612 37.9689 128.57 36.7642 130.131 36.7642C131.5 36.7642 132.294 37.5856 132.294 39.1738V47.9909H136.018V38.5441C136.018 35.4772 134.348 33.5605 131.39 33.5605C129.611 33.5605 128.132 34.4915 127.174 36.0248H127.119C126.434 34.5462 125.01 33.5605 123.23 33.5605C121.286 33.5605 119.917 34.5462 119.15 35.8332H119.068V33.9438H115.481V47.9909Z" fill="#1B3233" fill-opacity="0.8"/>
<path d="M65.6114 23.9313H69.3354V4.353H65.6114V23.9313Z" fill="#1B3233" fill-opacity="0.8"/>
<path d="M78.4411 24.3422C82.795 24.3422 85.7796 21.1111 85.7796 16.9216C85.7796 12.7321 82.795 9.50104 78.4411 9.50104C74.0874 9.50104 71.1026 12.7321 71.1026 16.9216C71.1026 21.1111 74.0874 24.3422 78.4411 24.3422ZM78.4411 21.4945C76.141 21.4945 74.8815 19.6599 74.8815 16.9216C74.8815 14.1834 76.141 12.3214 78.4411 12.3214C80.7138 12.3214 82.0008 14.1834 82.0008 16.9216C82.0008 19.6599 80.7138 21.4945 78.4411 21.4945Z" fill="#1B3233" fill-opacity="0.8"/>
<path d="M93.699 28.7235C95.7802 28.7235 97.5874 28.2306 98.7648 27.1352C99.8053 26.1769 100.435 24.8351 100.435 22.8636V9.88439H96.848V11.363H96.7933C95.9444 10.1856 94.6574 9.50104 92.9049 9.50104C89.3453 9.50104 86.826 12.1845 86.826 16.374C86.826 20.6183 89.8929 23.0826 93.0145 23.0826C94.7944 23.0826 95.8623 22.3708 96.6838 21.4398H96.7659V22.9731C96.7659 24.8899 95.7528 25.903 93.6443 25.903C91.9192 25.903 91.1252 25.2185 90.8239 24.3422H87.1273C87.5107 27.0805 89.8656 28.7235 93.699 28.7235ZM93.6443 20.098C91.7276 20.098 90.4679 18.7015 90.4679 16.3193C90.4679 13.9644 91.7275 12.4857 93.6169 12.4857C95.8623 12.4857 96.9575 14.2381 96.9575 16.2919C96.9575 18.3729 95.9992 20.098 93.6443 20.098Z" fill="#1B3233" fill-opacity="0.8"/>
<path d="M109.487 24.3422C113.841 24.3422 116.825 21.1111 116.825 16.9216C116.825 12.7321 113.841 9.50104 109.487 9.50104C105.133 9.50104 102.148 12.7321 102.148 16.9216C102.148 21.1111 105.133 24.3422 109.487 24.3422ZM109.487 21.4945C107.187 21.4945 105.927 19.6599 105.927 16.9216C105.927 14.1834 107.187 12.3214 109.487 12.3214C111.76 12.3214 113.047 14.1834 113.047 16.9216C113.047 19.6599 111.76 21.4945 109.487 21.4945Z" fill="#1B3233" fill-opacity="0.8"/>
<path d="M120.09 18.5643H136.19V15.3606H120.09V18.5643Z" fill="#1B3233" fill-opacity="0.8"/>
<path d="M137.371 31.5577C137.371 30.9275 137.882 30.4167 138.512 30.4167H140.794C141.424 30.4167 141.935 30.9275 141.935 31.5577C141.935 32.1877 141.424 32.6986 140.794 32.6986H138.512C137.882 32.6986 137.371 32.1877 137.371 31.5577Z" fill="#1B3233" fill-opacity="0.8"/>
<path fill-rule="evenodd" clip-rule="evenodd" d="M27.9485 -6.10352e-05C42.9917 -6.10352e-05 55.1866 12.1948 55.1866 27.238C55.1866 42.2812 42.9917 54.4761 27.9485 54.4761C12.9053 54.4761 0.710388 42.2812 0.710388 27.238C0.710388 12.1948 12.9053 -6.10352e-05 27.9485 -6.10352e-05ZM26.964 2.03815C23.8566 2.47546 20.8978 4.97236 18.6009 9.1484C17.9347 10.3597 17.3335 11.698 16.8096 13.1429C19.9327 12.3581 23.3635 11.8954 26.964 11.8238V2.03815ZM14.5076 13.7971C15.159 11.7526 15.9559 9.87157 16.8756 8.19949C18.0142 6.12931 19.3655 4.34162 20.888 2.96858C12.6091 5.37297 6.08341 11.8986 3.67903 20.1775C5.05206 18.655 6.83977 17.3038 8.90995 16.1652C10.582 15.2455 12.463 14.4485 14.5076 13.7971ZM13.8533 16.0992C13.0685 19.2223 12.6058 22.653 12.5343 26.2535H2.74859C3.18591 23.1461 5.68282 20.1872 9.85885 17.8905C11.0702 17.2242 12.4084 16.6231 13.8533 16.0992ZM14.5038 26.2535C14.5851 22.3243 15.1507 18.6354 16.0866 15.3761C19.3459 14.4402 23.0349 13.8745 26.964 13.7932V18.0463C25.4981 21.7989 22.5085 24.7882 18.7558 26.2535H14.5038ZM12.5343 28.2226H2.74859C3.18591 31.33 5.68282 34.2888 9.85885 36.5856C11.0702 37.2518 12.4084 37.853 13.8533 38.3769C13.0685 35.2538 12.6058 31.823 12.5343 28.2226ZM16.0866 39.1C15.1507 35.8406 14.5851 32.1518 14.5038 28.2226H18.7558C22.5085 29.6878 25.4983 32.6772 26.964 36.4298V40.6829C23.0349 40.6016 19.3459 40.0359 16.0866 39.1ZM14.5076 40.6789C12.463 40.0275 10.582 39.2306 8.90995 38.3109C6.83977 37.1723 5.05206 35.821 3.67903 34.2986C6.08341 42.5774 12.6091 49.1031 20.888 51.5075C19.3655 50.1344 18.0142 48.3467 16.8756 46.2765C15.9559 44.6045 15.159 42.7234 14.5076 40.6789ZM26.964 52.4379C23.8566 52.0006 20.8978 49.5037 18.6009 45.3277C17.9347 44.1164 17.3335 42.778 16.8096 41.3332C19.9327 42.1179 23.3635 42.5807 26.964 42.6522V52.4379ZM35.009 51.5075C36.5315 50.1344 37.8828 48.3467 39.0214 46.2765C39.941 44.6045 40.738 42.7234 41.3894 40.6789C43.4339 40.0275 45.3149 39.2306 46.9871 38.3109C49.0572 37.1723 50.845 35.821 52.2179 34.2986C49.8136 42.5774 43.2879 49.1031 35.009 51.5075ZM39.0874 41.3332C38.5634 42.778 37.9623 44.1164 37.296 45.3277C34.9993 49.5037 32.0405 52.0006 28.933 52.4379V42.6522C32.5335 42.5807 35.9642 42.1179 39.0874 41.3332ZM42.0436 38.3769C43.4885 37.853 44.8268 37.2518 46.0381 36.5856C50.2141 34.2888 52.711 31.33 53.1483 28.2226H43.3626C43.2911 31.823 42.8284 35.2538 42.0436 38.3769ZM41.3933 28.2226C41.312 32.1518 40.7463 35.8406 39.8104 39.1C36.5511 40.0359 32.8622 40.6016 28.933 40.6829V36.4329C30.3983 32.679 33.3886 29.6882 37.1424 28.2226H41.3933ZM43.3626 26.2535H53.1483C52.711 23.1461 50.2141 20.1872 46.0381 17.8905C44.8268 17.2242 43.4885 16.6231 42.0436 16.0992C42.8284 19.2223 43.2911 22.653 43.3626 26.2535ZM39.8104 15.3761C40.7463 18.6354 41.312 22.3243 41.3933 26.2535H37.1424C33.3886 24.7878 30.3983 21.7971 28.933 18.0431V13.7932C32.8622 13.8745 36.5511 14.4402 39.8104 15.3761ZM41.3894 13.7971C43.4339 14.4485 45.3149 15.2455 46.9871 16.1652C49.0572 17.3038 50.845 18.655 52.2179 20.1775C49.8136 11.8986 43.2879 5.37297 35.009 2.96858C36.5315 4.34162 37.8828 6.12931 39.0214 8.19949C39.941 9.87157 40.738 11.7526 41.3894 13.7971ZM28.933 2.03815C32.0405 2.47546 34.9993 4.97236 37.296 9.1484C37.9623 10.3597 38.5634 11.698 39.0874 13.1429C35.9642 12.3581 32.5335 11.8954 28.933 11.8238V2.03815Z" fill="#1B3233" fill-opacity="0.8"/>
</g>
<defs>
<clipPath id="clip0_475_534">
<rect width="143" height="54.4762" fill="white"/>
</clipPath>
</defs>
</svg>
