<svg width="156" height="36" viewBox="0 0 156 36" fill="none" xmlns="http://www.w3.org/2000/svg">
<g clip-path="url(#clip0_475_557)">
<path fill-rule="evenodd" clip-rule="evenodd" d="M13.2955 24.8182C12.1201 24.8182 10.9928 24.3513 10.1617 23.5201C9.33056 22.689 8.86364 21.5618 8.86364 20.3864V0H0V20.3864C0 27.729 5.95282 33.6818 13.2955 33.6818H23.0455V24.8182H13.2955ZM39.8864 8.86364C38.8388 8.86364 37.8014 9.06997 36.8336 9.47087C35.8657 9.87177 34.9863 10.4594 34.2456 11.2001C33.5048 11.9409 32.9172 12.8203 32.5163 13.7881C32.1154 14.756 31.9091 15.7933 31.9091 16.8409C31.9091 17.8885 32.1154 18.9258 32.5163 19.8937C32.9172 20.8615 33.5048 21.7409 34.2456 22.4817C34.9863 23.2225 35.8657 23.8101 36.8336 24.2109C37.8014 24.6118 38.8388 24.8182 39.8864 24.8182C42.0021 24.8182 44.0311 23.9777 45.5271 22.4817C47.0232 20.9857 47.8636 18.9566 47.8636 16.8409C47.8636 14.7252 47.0232 12.6962 45.5271 11.2001C44.0311 9.7041 42.0021 8.86364 39.8864 8.86364ZM23.0455 16.8409C23.0455 7.5403 30.5857 0 39.8864 0C49.187 0 56.7273 7.5403 56.7273 16.8409C56.7273 26.1415 49.187 33.6818 39.8864 33.6818C30.5857 33.6818 23.0455 26.1415 23.0455 16.8409ZM135.614 8.86364C133.498 8.86364 131.469 9.7041 129.973 11.2001C128.477 12.6962 127.636 14.7252 127.636 16.8409C127.636 18.9566 128.477 20.9857 129.973 22.4817C131.469 23.9777 133.498 24.8182 135.614 24.8182C137.729 24.8182 139.758 23.9777 141.254 22.4817C142.75 20.9857 143.591 18.9566 143.591 16.8409C143.591 14.7252 142.75 12.6962 141.254 11.2001C139.758 9.7041 137.729 8.86364 135.614 8.86364ZM118.773 16.8409C118.773 7.5403 126.313 0 135.614 0C144.914 0 152.455 7.5403 152.455 16.8409C152.455 26.1415 144.914 33.6818 135.614 33.6818C126.313 33.6818 118.773 26.1415 118.773 16.8409ZM75.3409 0C66.0403 0 58.5 7.5403 58.5 16.8409C58.5 26.1415 66.0403 33.6818 75.3409 33.6818H100.159C101.904 33.6818 103.588 33.4159 105.171 32.9231L109.909 35.4545L115.022 25.8783C116.32 23.4405 117 20.7208 117 17.9586V16.8409C117 7.5403 109.46 0 100.159 0H75.3409ZM108.136 16.8409C108.136 14.7252 107.296 12.6962 105.8 11.2001C104.304 9.7041 102.275 8.86364 100.159 8.86364H75.3409C74.2933 8.86364 73.256 9.06997 72.2881 9.47087C71.3203 9.87177 70.4409 10.4594 69.7001 11.2001C68.9594 11.9409 68.3718 12.8203 67.9709 13.7881C67.57 14.756 67.3636 15.7933 67.3636 16.8409C67.3636 17.8885 67.57 18.9258 67.9709 19.8937C68.3718 20.8615 68.9594 21.7409 69.7001 22.4817C70.4409 23.2225 71.3203 23.8101 72.2881 24.2109C73.256 24.6118 74.2933 24.8182 75.3409 24.8182H100.159C102.264 24.8182 104.284 23.9863 105.778 22.5037C107.272 21.021 108.12 19.0079 108.136 16.903V16.8409Z" fill="#1B3233" fill-opacity="0.8"/>
<path d="M156 2.2157C156 2.80339 155.767 3.36702 155.351 3.78258C154.935 4.19814 154.372 4.4316 153.784 4.4316C153.196 4.4316 152.633 4.19814 152.217 3.78258C151.802 3.36702 151.568 2.80339 151.568 2.2157C151.568 1.628 151.802 1.06437 152.217 0.648811C152.633 0.233248 153.196 -0.000213623 153.784 -0.000213623C154.372 -0.000213623 154.935 0.233248 155.351 0.648811C155.767 1.06437 156 1.628 156 2.2157Z" fill="#1B3233" fill-opacity="0.8"/>
</g>
<defs>
<clipPath id="clip0_475_557">
<rect width="156" height="35.4545" fill="white"/>
</clipPath>
</defs>
</svg>
