<svg width="104" height="51" viewBox="0 0 104 51" fill="none" xmlns="http://www.w3.org/2000/svg">
<g clip-path="url(#clip0_475_584)">
<path d="M93.0483 24.9979C93.0483 28.681 90.2061 31.7325 86.3644 31.7325C82.5215 31.7325 79.7338 28.681 79.7338 24.9979C79.7338 21.3135 82.5227 18.2607 86.3644 18.2607C90.2061 18.2607 93.0483 21.3147 93.0483 24.9979Z" fill="#1B3233" fill-opacity="0.8"/>
<path d="M61.847 24.7873C61.847 28.5237 58.9007 31.3127 55.1631 31.3127C51.4799 31.3127 48.5337 28.5224 48.5337 24.7873C48.5337 21.0496 51.4799 18.3139 55.1643 18.3139C58.9007 18.3139 61.847 21.0509 61.847 24.7873Z" fill="#1B3233" fill-opacity="0.8"/>
<path d="M25.4597 31.7325C29.3014 31.7325 32.1436 28.681 32.1436 24.9979C32.1436 21.3135 29.3014 18.2607 25.4597 18.2607C21.6168 18.2607 18.8291 21.3135 18.8291 24.9966C18.8291 28.681 21.6181 31.7325 25.4597 31.7325Z" fill="#1B3233" fill-opacity="0.8"/>
<path d="M86.3644 38.7337C78.3653 38.7337 72.261 32.5228 72.261 24.9448C72.261 17.4187 78.4185 11.2092 86.3644 11.2092C94.4168 11.2092 100.521 17.472 100.521 24.9448C100.521 32.5228 94.3635 38.7324 86.3644 38.7324V38.7337ZM86.3644 31.7327C90.2073 31.7327 93.0483 28.6812 93.0483 24.998C93.0483 21.3137 90.2073 18.2609 86.3644 18.2609C82.5227 18.2609 79.7338 21.3137 79.7338 24.9968C79.7338 28.6812 82.5227 31.7327 86.3644 31.7327ZM54.6381 50.7317C48.5338 50.7317 43.85 48.048 41.482 43.2057L47.6916 39.8383C48.8496 42.101 51.0069 43.8905 54.5328 43.8905C58.9541 43.8905 61.9523 40.7858 61.9523 35.6809V35.2065C60.5318 36.9961 58.0066 38.3646 54.3222 38.3646C47.0067 38.3646 41.1662 32.6814 41.1662 24.9448C41.1662 17.4187 47.2705 11.2624 55.2697 11.2624C63.426 11.2624 69.4263 17.1029 69.4263 24.9448V35.4703C69.4263 44.7327 63.1102 50.7317 54.6381 50.7317ZM55.1644 31.3129C58.9008 31.3129 61.8483 28.5226 61.8483 24.7875C61.8483 21.0499 58.9008 18.3141 55.1644 18.3141C51.48 18.3141 48.5338 21.0511 48.5338 24.7875C48.5338 28.5239 51.48 31.3129 55.1644 31.3129ZM25.4597 38.7337C17.4606 38.7337 11.3563 32.5228 11.3563 24.9448C11.3563 17.4187 17.5126 11.2092 25.4597 11.2092C33.5108 11.2092 39.6164 17.472 39.6164 24.9448C39.6164 32.5228 33.4588 38.7324 25.4597 38.7324V38.7337ZM25.4597 31.7327C29.3014 31.7327 32.1436 28.6812 32.1436 24.998C32.1436 21.3137 29.3014 18.2609 25.4597 18.2609C21.6168 18.2609 18.8291 21.3137 18.8291 24.9968C18.8291 28.6812 21.618 31.7327 25.4597 31.7327ZM0 0H7.47278V38.0488H0V0ZM104 8.2439C104 9.08483 103.666 9.89132 103.071 10.4859C102.477 11.0806 101.67 11.4146 100.829 11.4146C99.9883 11.4146 99.1818 11.0806 98.5872 10.4859C97.9926 9.89132 97.6585 9.08483 97.6585 8.2439C97.6585 7.40297 97.9926 6.59648 98.5872 6.00186C99.1818 5.40723 99.9883 5.07317 100.829 5.07317C101.67 5.07317 102.477 5.40723 103.071 6.00186C103.666 6.59648 104 7.40297 104 8.2439Z" fill="#1B3233" fill-opacity="0.8"/>
</g>
<defs>
<clipPath id="clip0_475_584">
<rect width="104" height="50.7317" fill="white"/>
</clipPath>
</defs>
</svg>
