<svg width="664" height="554" viewBox="0 0 664 554" fill="none" xmlns="http://www.w3.org/2000/svg">
<path d="M184.342 511.237C194.542 503.947 205.101 497.15 215.83 490.67C237.607 477.511 260.187 465.752 282.925 454.356C294.883 448.36 307.162 442.939 319.32 437.36C331.551 431.748 343.806 426.185 356.064 420.627C367.263 415.547 378.463 410.468 389.651 405.361C426.905 326.286 468.033 236.641 462.987 236.641L81.3725 225.816C72.3448 225.816 65 233.16 65 242.186V507.182C65 516.211 72.3448 523.556 81.3725 523.556L193.888 524.281C199.663 520.042 178.518 515.401 184.342 511.237Z" fill="#DAEBE3"/>
<path d="M475.671 226.741H89.161C80.6301 226.741 73.7144 233.656 73.7144 242.186V507.182C73.7144 515.712 80.6301 522.63 89.161 522.63H475.671C484.2 522.63 491.116 515.712 491.116 507.182V242.186C491.116 233.656 484.2 226.741 475.671 226.741Z" fill="#1B3233"/>
<path d="M89.1612 227.415C81.0161 227.415 74.3897 234.043 74.3897 242.186V507.183C74.3897 515.328 81.0161 521.953 89.1612 521.953H475.671C483.814 521.953 490.441 515.328 490.441 507.183V242.186C490.441 234.043 483.814 227.415 475.671 227.415H89.1612ZM475.671 523.305H89.1612C80.2714 523.305 73.0391 516.072 73.0391 507.183V242.186C73.0391 233.296 80.2714 226.064 89.1612 226.064H475.671C484.56 226.064 491.793 233.296 491.793 242.186V507.183C491.793 516.072 484.56 523.305 475.671 523.305Z" fill="#DAEBE3"/>
<path d="M245.468 523.809H87.6834C81.322 523.809 76.147 528.986 76.147 535.345C76.147 541.706 81.322 546.883 87.6834 546.883H250.18C256.543 546.883 245.468 523.809 245.468 523.809Z" fill="#DAEBE3"/>
<path d="M565.035 523.809H192.571C186.2 523.809 181.035 528.974 181.035 535.345C181.035 541.715 186.2 546.883 192.571 546.883H565.035C571.406 546.883 576.57 541.715 576.57 535.345C576.57 528.974 571.406 523.809 565.035 523.809Z" fill="#1B3233"/>
<path d="M192.572 524.484C186.582 524.484 181.71 529.358 181.71 535.345C181.71 541.335 186.582 546.206 192.572 546.206H565.035C571.025 546.206 575.896 541.335 575.896 535.345C575.896 529.358 571.025 524.484 565.035 524.484H192.572ZM565.035 547.558H192.572C185.838 547.558 180.36 542.079 180.36 535.345C180.36 528.611 185.838 523.136 192.572 523.136H565.035C571.769 523.136 577.248 528.611 577.248 535.345C577.248 542.079 571.769 547.558 565.035 547.558Z" fill="#DAEBE3"/>
<path d="M462.714 248.88H102.115C98.3729 248.88 95.3396 251.913 95.3396 255.656V260.642C95.3396 264.382 98.3729 267.415 102.115 267.415H462.714C466.458 267.415 469.49 264.382 469.49 260.642V255.656C469.49 251.913 466.458 248.88 462.714 248.88Z" fill="#DAEBE3"/>
<path d="M460.967 258.148C460.967 260.612 458.968 262.611 456.504 262.611C454.039 262.611 452.041 260.612 452.041 258.148C452.041 255.684 454.039 253.685 456.504 253.685C458.968 253.685 460.967 255.684 460.967 258.148Z" fill="#1B3233"/>
<path d="M469.491 501.135H95.4934V276.114H469.491V501.135Z" fill="#1B3233"/>
<path d="M96.1687 500.458H468.816V276.792H96.1687V500.458ZM469.491 501.81H95.4935C95.1207 501.81 94.8184 501.508 94.8184 501.136V276.115C94.8184 275.743 95.1207 275.441 95.4935 275.441H469.491C469.866 275.441 470.168 275.743 470.168 276.115V501.136C470.168 501.508 469.866 501.81 469.491 501.81Z" fill="#DAEBE3"/>
<path d="M553.079 437.569H458.647L473.225 549.816C494.868 554.431 516.623 554.573 538.502 549.816L553.079 437.569Z" fill="#DAEBE3"/>
<path d="M560.058 409.854H451.669L468.402 538.695C493.241 543.986 518.213 544.15 543.328 538.695L560.058 409.854Z" fill="#1B3233"/>
<path d="M469.01 538.133C493.701 543.328 518.495 543.328 542.718 538.136L559.29 410.532H452.437L469.01 538.133ZM506.044 543.382C493.48 543.382 480.856 542.04 468.26 539.355C467.982 539.294 467.767 539.065 467.731 538.783L451.001 409.942C450.974 409.752 451.034 409.555 451.161 409.41C451.291 409.265 451.476 409.18 451.669 409.18H560.058C560.252 409.18 560.439 409.265 560.566 409.41C560.693 409.555 560.754 409.752 560.729 409.942L543.996 538.783C543.96 539.065 543.749 539.294 543.47 539.355C531.116 542.04 518.61 543.382 506.044 543.382Z" fill="#DAEBE3"/>
<path d="M553.234 396.813H458.493L455.086 408.022H556.641L553.234 396.813Z" fill="#DAEBE3"/>
<path d="M455.999 407.345H555.731L552.735 397.488H458.992L455.999 407.345ZM556.641 408.696H455.085C454.874 408.696 454.671 408.593 454.544 408.424C454.417 408.252 454.378 408.031 454.441 407.825L457.846 396.617C457.934 396.333 458.194 396.139 458.493 396.139H553.234C553.533 396.139 553.793 396.333 553.881 396.617L557.288 407.825C557.349 408.031 557.312 408.252 557.182 408.424C557.055 408.593 556.856 408.696 556.641 408.696Z" fill="#1B3233"/>
<path d="M565.507 420.137H446.223V408.021H565.507V420.137Z" fill="#DAEBE3"/>
<path d="M446.898 419.463H564.83V408.696H446.898V419.463ZM565.507 420.815H446.223C445.848 420.815 445.546 420.513 445.546 420.138V408.022C445.546 407.647 445.848 407.345 446.223 407.345H565.507C565.879 407.345 566.181 407.647 566.181 408.022V420.138C566.181 420.513 565.879 420.815 565.507 420.815Z" fill="#1B3233"/>
<path d="M455.621 452.164L464.19 517.932C464.19 517.932 506.944 530.973 547.749 517.932C552.441 486.095 556.052 452.164 556.052 452.164C556.052 452.164 506.485 458.892 455.621 452.164Z" fill="#DAEBE3"/>
<path d="M516.357 506.692C516.312 506.692 516.269 506.692 516.224 506.689C514.25 506.605 513.182 504.706 512.145 502.87C511.199 501.189 510.304 499.602 508.883 499.451C507.247 499.281 505.705 501.102 504.211 502.861C502.581 504.787 501.042 506.608 499.134 506.142C497.689 505.791 497.172 504.379 496.673 503.013C496.189 501.685 495.73 500.433 494.535 499.956C493.389 499.499 492.358 500.025 490.632 500.993C489.226 501.782 487.629 502.68 485.558 502.946C481.869 503.424 477.854 501.667 473.606 497.736C473.333 497.482 473.315 497.056 473.569 496.781C473.823 496.506 474.25 496.491 474.525 496.745C478.462 500.394 482.117 502.03 485.386 501.607C487.197 501.374 488.673 500.545 489.97 499.817C491.651 498.873 493.238 497.984 495.034 498.701C496.791 499.402 497.429 501.147 497.943 502.547C498.421 503.856 498.759 504.66 499.452 504.83C500.549 505.093 501.886 503.518 503.18 501.991C504.819 500.055 506.681 497.854 509.025 498.108C511.135 498.332 512.299 500.391 513.321 502.205C514.216 503.79 515.06 505.286 516.282 505.341C517.515 505.371 518.525 503.974 519.608 502.471C520.917 500.654 522.401 498.598 524.766 498.402C526.997 498.217 529.317 499.768 531.684 503.007C531.905 503.309 531.838 503.732 531.536 503.95C531.237 504.171 530.813 504.104 530.593 503.805C528.521 500.969 526.598 499.602 524.878 499.747C523.133 499.892 521.897 501.604 520.702 503.261C519.487 504.948 518.229 506.692 516.357 506.692Z" fill="#1B3233"/>
<path d="M517.945 321.159C516.723 322.389 515.468 323.577 514.301 324.85C513.699 325.467 513.128 326.111 512.568 326.767L511.71 327.732L510.893 328.733C508.737 331.4 506.784 334.254 505.439 337.356C504.069 340.431 503.437 343.869 504.193 347.099C504.858 350.352 506.908 353.161 509.309 355.553C511.716 357.975 514.467 360.1 516.995 362.54C518.262 363.759 519.447 365.089 520.469 366.553C521.497 368.01 522.293 369.655 522.776 371.388C523.759 374.871 523.275 378.626 521.872 381.858C520.49 385.121 518.368 387.975 515.979 390.503C515.894 390.594 515.752 390.6 515.662 390.512C515.574 390.431 515.568 390.295 515.647 390.204C517.893 387.594 519.898 384.737 521.125 381.556C521.739 379.972 522.147 378.315 522.283 376.637C522.413 374.965 522.259 373.268 521.776 371.672C521.298 370.072 520.536 368.563 519.541 367.206C518.555 365.839 517.385 364.602 516.152 363.42C513.675 361.053 510.905 358.945 508.402 356.46C507.147 355.223 505.971 353.872 504.994 352.36C504.008 350.857 503.268 349.164 502.878 347.386C502.472 345.611 502.454 343.757 502.735 341.976C503.008 340.192 503.561 338.472 504.299 336.857C504.465 336.443 504.662 336.044 504.87 335.657C505.079 335.264 505.269 334.865 505.49 334.481C505.95 333.728 506.385 332.957 506.908 332.246L507.664 331.167C507.924 330.81 508.202 330.471 508.468 330.124L509.285 329.093L510.143 328.101L511.005 327.112L511.906 326.163C512.508 325.528 513.122 324.908 513.763 324.315C515.006 323.094 516.327 321.96 517.645 320.826C517.739 320.744 517.881 320.753 517.96 320.847C518.038 320.938 518.032 321.071 517.951 321.152L517.945 321.159Z" fill="#DAEBE3"/>
<path d="M522.952 335.937C522.02 338.365 521.473 340.941 521.564 343.508C521.576 344.793 521.854 346.048 522.138 347.285C522.353 347.884 522.51 348.5 522.767 349.081L523.175 349.943C523.308 350.233 523.441 350.52 523.62 350.783C524.893 353 526.683 354.874 528.533 356.704C530.387 358.53 532.389 360.287 534.052 362.437C535.702 364.553 537.003 367.199 537.042 370.011C537.154 372.805 536.277 375.493 535.058 377.875C532.558 382.668 528.808 386.532 524.881 390.015C524.79 390.097 524.651 390.088 524.572 389.997C524.497 389.913 524.5 389.783 524.575 389.701C526.39 387.808 528.155 385.873 529.773 383.835C531.4 381.806 532.845 379.635 533.955 377.331C534.532 376.185 534.962 374.985 535.279 373.766C535.609 372.551 535.76 371.299 535.705 370.062C535.63 367.571 534.562 365.233 533.02 363.226C531.484 361.197 529.534 359.446 527.669 357.578C525.794 355.721 523.992 353.683 522.695 351.3C521.385 348.93 520.711 346.202 520.744 343.517C520.775 340.823 521.44 338.175 522.546 335.768C522.598 335.659 522.728 335.611 522.837 335.662C522.943 335.71 522.991 335.831 522.952 335.937Z" fill="#DAEBE3"/>
<path d="M556.475 124.581H392.841C388.075 124.581 384.211 120.717 384.211 115.952V9.30401C384.211 4.53872 388.075 0.67453 392.841 0.67453H556.475C561.24 0.67453 565.105 4.53872 565.105 9.30401V115.952C565.105 120.717 561.24 124.581 556.475 124.581Z" fill="#1B3233"/>
<path d="M392.84 1.35173C388.456 1.35173 384.888 4.91965 384.888 9.30396V115.952C384.888 120.339 388.456 123.907 392.84 123.907H556.475C560.862 123.907 564.43 120.339 564.43 115.952V9.30396C564.43 4.91965 560.862 1.35173 556.475 1.35173H392.84ZM556.475 125.258H392.84C387.712 125.258 383.537 121.083 383.537 115.952V9.30396C383.537 4.17281 387.712 0.000183105 392.84 0.000183105H556.475C561.606 0.000183105 565.782 4.17281 565.782 9.30396V115.952C565.782 121.083 561.606 125.258 556.475 125.258Z" fill="#DAEBE3"/>
<path d="M474.658 109.372C474.286 109.372 473.984 109.07 473.984 108.695V16.071C473.984 15.6961 474.286 15.3937 474.658 15.3937C475.033 15.3937 475.335 15.6961 475.335 16.071V108.695C475.335 109.07 475.033 109.372 474.658 109.372Z" fill="#DAEBE3"/>
<path d="M544.779 72.9492H402.994C402.622 72.9492 402.32 72.6468 402.32 72.2719C402.32 71.9 402.622 71.5977 402.994 71.5977H544.779C545.154 71.5977 545.457 71.9 545.457 72.2719C545.457 72.6468 545.154 72.9492 544.779 72.9492Z" fill="#DAEBE3"/>
<path d="M542.089 74.563L544.381 72.271L542.089 69.9821H544.033L546.325 72.271L544.033 74.563H542.089Z" fill="#DAEBE3"/>
<path d="M474.978 103.14C458.768 103.14 445.579 89.9509 445.579 73.7381V56.7028C445.579 41.2368 432.995 28.6553 417.529 28.6553H402.994C402.622 28.6553 402.32 28.353 402.32 27.978C402.32 27.6061 402.622 27.3037 402.994 27.3037H417.529C433.738 27.3037 446.928 40.493 446.928 56.7028V73.7381C446.928 89.2041 459.512 101.789 474.978 101.789C490.444 101.789 503.029 89.2041 503.029 73.7381V56.7028C503.029 40.493 516.218 27.3037 532.428 27.3037H540.945C541.317 27.3037 541.62 27.6061 541.62 27.978C541.62 28.353 541.317 28.6553 540.945 28.6553H532.428C516.962 28.6553 504.38 41.2368 504.38 56.7028V73.7381C504.38 89.9509 491.191 103.14 474.978 103.14Z" fill="#DAEBE3"/>
<path d="M305.097 193.904C298.397 195.985 294.983 186.391 282.586 184.9C270.513 183.445 267.664 191.815 254.674 192.102C239.868 192.426 223.244 182 222.259 171.393C221.401 162.153 232.787 156.865 230.294 150.587C227.996 144.8 217.931 148.311 207.823 140.815C199.147 134.384 193.143 121.848 196.148 112.867C198.433 106.037 204.085 106.768 206.953 98.91C209.992 90.5798 204.797 87.1087 207.198 78.6122C209.671 69.8587 218.663 61.4348 227.357 61.3471C235.785 61.2625 237.164 69.0816 246.57 69.6471C257.348 70.2971 261.699 60.4067 268.178 62.8952C275.169 65.5772 272.23 77.8986 281.507 83.1598C285.374 85.352 286.468 83.6194 294.291 85.8539C298.279 86.9938 305.935 89.1799 310.634 94.2082C319.641 103.845 311.272 116.943 319.051 123.22C324.851 127.898 331.179 121.987 339.76 127.272C345.064 130.541 350.594 137.691 349.406 143.941C347.537 153.777 331.046 150.787 319.502 164.641C308.925 177.335 313.143 191.401 305.097 193.904Z" fill="#DAEBE3"/>
<path d="M192.965 301.916C192.943 301.916 192.921 301.916 192.898 301.913C192.527 301.876 192.256 301.547 192.292 301.175L194.23 281.485C194.266 281.113 194.59 280.85 194.968 280.877C195.339 280.913 195.61 281.246 195.574 281.618L193.636 301.308C193.602 301.656 193.308 301.916 192.965 301.916Z" fill="#DAEBE3"/>
<path d="M538.043 122.722C535.032 119.867 531.512 119.78 527.391 120.291L525.939 119.381C522.755 117.391 518.903 116.774 515.257 117.669L486.541 124.723C485.338 125.017 484.246 123.946 484.518 122.74C485.069 120.33 485.888 116.714 486.523 113.859C487.173 110.936 486.018 109.215 485.044 108.329C484.491 107.824 483.629 107.879 483.136 108.444C479.959 112.088 468.221 126.033 468.593 132.927C469.022 140.9 474.492 164.116 474.492 164.116H498.896L494.112 148.48C493.777 147.386 494.363 146.222 495.443 145.838L530.29 133.513C530.919 133.293 531.125 132.512 530.693 132.007C529.918 131.1 528.694 129.803 527.36 128.905L537.269 124.99C538.17 124.633 538.539 123.553 538.043 122.722Z" fill="#1B3233"/>
<path d="M475.027 163.438H497.982L493.465 148.679C493.024 147.231 493.792 145.707 495.219 145.202L530.066 132.878C530.181 132.836 530.224 132.745 530.236 132.693C530.251 132.642 530.26 132.542 530.178 132.445C529.419 131.557 528.246 130.317 526.982 129.464C526.774 129.325 526.662 129.08 526.689 128.829C526.716 128.581 526.88 128.367 527.112 128.276L537.021 124.36C537.266 124.263 537.456 124.064 537.541 123.816C537.617 123.592 537.601 123.35 537.502 123.139C534.799 120.629 531.657 120.442 527.472 120.959C527.321 120.977 527.164 120.943 527.034 120.862L525.579 119.955C522.571 118.074 518.867 117.478 515.42 118.325L486.701 125.379C485.909 125.576 485.083 125.349 484.5 124.774C483.919 124.203 483.681 123.387 483.862 122.591C484.409 120.182 485.229 116.565 485.864 113.711C486.435 111.153 485.486 109.644 484.591 108.828C484.461 108.71 484.288 108.646 484.11 108.658C483.931 108.67 483.765 108.752 483.644 108.888C476.508 117.067 468.985 127.665 469.267 132.89C469.651 140.053 474.219 159.958 475.027 163.438ZM498.896 164.79H474.492C474.177 164.79 473.905 164.575 473.832 164.269C473.609 163.317 468.344 140.903 467.918 132.963C467.537 125.878 479.081 112.066 482.628 107.999C482.988 107.588 483.487 107.343 484.034 107.31C484.569 107.27 485.096 107.464 485.501 107.83C486.45 108.692 487.932 110.645 487.182 114.004C486.547 116.862 485.728 120.481 485.177 122.891C485.102 123.229 485.198 123.565 485.446 123.813C485.697 124.058 486.039 124.152 486.381 124.067L515.096 117.016C518.894 116.081 522.979 116.735 526.296 118.809L527.548 119.589C531.92 119.072 535.467 119.35 538.508 122.232C538.554 122.274 538.593 122.322 538.623 122.377C538.962 122.942 539.032 123.625 538.82 124.251C538.605 124.877 538.131 125.373 537.517 125.615L528.727 129.089C529.716 129.909 530.59 130.846 531.206 131.566C531.554 131.974 531.678 132.527 531.542 133.041C531.403 133.558 531.019 133.972 530.517 134.151L495.669 146.475C494.925 146.738 494.526 147.53 494.756 148.283L499.543 163.916C499.606 164.121 499.567 164.342 499.44 164.514C499.313 164.687 499.11 164.79 498.896 164.79Z" fill="#DAEBE3"/>
<path d="M497.556 136.848C497.254 136.848 496.978 136.646 496.903 136.337C496.812 135.977 497.03 135.608 497.393 135.518L522.154 129.319C522.516 129.229 522.882 129.449 522.973 129.809C523.064 130.172 522.843 130.538 522.48 130.628L497.719 136.827C497.665 136.842 497.61 136.848 497.556 136.848Z" fill="#DAEBE3"/>
<path d="M495.035 129.594C494.732 129.594 494.457 129.392 494.381 129.083C494.291 128.72 494.508 128.355 494.871 128.264L519.632 122.065C519.995 121.975 520.361 122.195 520.451 122.555C520.542 122.918 520.321 123.284 519.962 123.375L495.201 129.576C495.143 129.588 495.089 129.594 495.035 129.594Z" fill="#DAEBE3"/>
<path d="M168.683 230.796C175.617 231.213 187.236 231.788 194.303 232.126C197.576 232.284 200.033 235.168 199.673 238.428L194.901 281.551C194.901 281.551 205.806 276.647 217.748 262.423C229.689 248.197 240.446 218.958 266.893 217.924C283.723 217.265 325.942 219.959 354.428 222.006C369.059 223.055 383.252 227.542 395.746 235.232C404.823 240.816 418.303 245.805 435.347 242.706C466.642 237.013 480.781 210.226 467.752 166.96C466.557 162.996 469.508 159.002 473.645 159.002H500.189C503.071 159.002 505.602 160.901 506.415 163.668C512.462 184.295 532.67 267.409 474.491 293.579C440.155 309.021 404.067 307.243 404.067 307.243L418.321 437.475C419.845 451.393 413.002 464.906 400.856 471.872C388.108 479.18 368.183 485.893 338.539 484.91C313.79 484.091 294.556 479.707 280.357 474.718C260.93 467.893 246.932 450.828 243.952 430.451C240.744 408.511 237.033 374.483 236.423 331.756C236.423 331.756 216.313 353.783 178.048 346.65C130.791 337.842 153.668 258.121 160.987 236.009C162.073 232.725 165.23 230.59 168.683 230.796Z" fill="#1B3233"/>
<path d="M236.423 331.081C236.504 331.081 236.585 331.093 236.663 331.124C236.922 331.223 237.095 331.468 237.099 331.747C237.716 374.952 241.53 409.216 244.621 430.354C247.577 450.573 261.357 467.328 280.581 474.082C297.75 480.115 317.255 483.528 338.563 484.236C363.257 485.049 384.109 480.695 400.521 471.286C412.422 464.461 419.147 451.217 417.65 437.547L403.397 307.315C403.375 307.119 403.442 306.922 403.578 306.78C403.714 306.635 403.904 306.56 404.101 306.569C404.461 306.587 440.43 308.159 474.214 292.962C498.705 281.947 512.046 259.59 513.863 226.508C515.329 199.879 508.689 173.824 505.766 163.858C505.046 161.397 502.751 159.676 500.19 159.676H473.645C471.895 159.676 470.292 160.483 469.249 161.886C468.2 163.298 467.888 165.076 468.396 166.767C475.487 190.3 474.791 209.999 466.391 223.726C460.075 234.046 449.383 240.84 435.468 243.371C417.744 246.594 403.892 241.037 395.393 235.806C383.138 228.265 368.957 223.726 354.38 222.68C323.542 220.464 283.336 217.957 266.921 218.598C247.263 219.369 236.536 235.827 227.072 250.35C224.052 254.985 221.2 259.36 218.265 262.856C206.361 277.036 195.63 281.962 195.179 282.165C194.958 282.264 194.7 282.24 194.504 282.095C194.308 281.953 194.204 281.717 194.23 281.475L199.002 238.352C199.156 236.961 198.741 235.612 197.834 234.548C196.93 233.49 195.664 232.867 194.271 232.8C187.723 232.486 175.685 231.896 168.642 231.47C165.484 231.27 162.616 233.236 161.628 236.22C156.47 251.807 140.853 304.718 156.475 331.172C161.218 339.203 168.518 344.189 178.172 345.988C215.633 352.973 235.726 331.517 235.924 331.299C236.055 331.157 236.237 331.081 236.423 331.081ZM344.353 485.681C342.43 485.681 340.486 485.651 338.518 485.584C317.074 484.874 297.432 481.433 280.134 475.355C260.435 468.434 246.314 451.266 243.285 430.551C240.225 409.627 236.459 375.871 235.772 333.331C230.947 337.755 211.054 353.49 177.925 347.315C167.871 345.441 160.262 340.24 155.312 331.858C139.4 304.915 155.142 251.52 160.346 235.797C161.526 232.229 164.986 229.892 168.723 230.121C175.759 230.548 187.791 231.137 194.336 231.452C196.106 231.536 197.713 232.326 198.862 233.671C200.013 235.023 200.54 236.737 200.345 238.5L195.71 280.381C198.742 278.751 207.694 273.348 217.231 261.988C220.113 258.556 222.944 254.211 225.94 249.612C235.106 235.549 246.513 218.045 266.869 217.25C283.339 216.606 323.602 219.115 354.477 221.332C369.268 222.393 383.661 227.001 396.1 234.657C404.4 239.764 417.922 245.188 435.227 242.041C448.751 239.582 459.129 233.003 465.239 223.022C473.434 209.63 474.078 190.312 467.105 167.154C466.47 165.052 466.857 162.839 468.166 161.082C469.467 159.331 471.465 158.325 473.645 158.325H500.19C503.347 158.325 506.174 160.444 507.063 163.477C510.005 173.509 516.69 199.743 515.211 226.581C513.364 260.207 499.754 282.954 474.767 294.196C443.469 308.271 410.321 308.083 404.824 307.944L418.996 437.399C420.55 451.604 413.562 465.365 401.192 472.456C385.871 481.242 366.774 485.681 344.353 485.681Z" fill="#DAEBE3"/>
<path d="M193.996 203.562L190.895 200.124V176.978C190.895 174.725 189.069 172.899 186.816 172.899C184.564 172.899 182.737 174.725 182.737 176.978V201.899L161.032 206.625V219.348C161.032 224.891 164.251 229.928 169.281 232.256L170.361 232.755C176.871 235.77 184.476 235.208 190.473 231.271C193.366 229.369 195.281 226.294 195.711 222.859L196.95 212.944C197.376 209.537 196.298 206.111 193.996 203.562Z" fill="#1B3233"/>
<path d="M161.707 207.169V219.348C161.707 224.606 164.792 229.435 169.564 231.642L170.644 232.144C176.986 235.08 184.26 234.542 190.102 230.705C192.835 228.909 194.635 226.018 195.041 222.774L196.28 212.859C196.682 209.645 195.666 206.419 193.495 204.012L190.393 200.577C190.281 200.453 190.219 200.29 190.219 200.124V176.978C190.219 175.1 188.692 173.573 186.816 173.573C184.939 173.573 183.412 175.1 183.412 176.978V201.899C183.412 202.216 183.191 202.491 182.881 202.561L161.707 207.169ZM179.099 235.371C176.041 235.371 172.968 234.708 170.077 233.369L168.997 232.87C163.748 230.439 160.356 225.133 160.356 219.348V206.625C160.356 206.307 160.577 206.032 160.888 205.962L182.062 201.354V176.978C182.062 174.356 184.194 172.221 186.816 172.221C189.437 172.221 191.57 174.356 191.57 176.978V199.864L194.497 203.108C196.932 205.805 198.071 209.422 197.62 213.029L196.381 222.94C195.926 226.578 193.907 229.819 190.843 231.833C187.272 234.179 183.199 235.371 179.099 235.371Z" fill="#DAEBE3"/>
<path d="M179.376 208.451H176.72C175.046 208.451 173.689 207.097 173.689 205.421V196.121C173.689 194.446 175.046 193.088 176.72 193.088H178.567C180.687 193.088 182.407 194.808 182.407 196.928V205.421C182.407 207.097 181.05 208.451 179.376 208.451Z" fill="#1B3233"/>
<path d="M176.72 193.765C175.421 193.765 174.364 194.82 174.364 196.121V205.421C174.364 206.722 175.421 207.777 176.72 207.777H179.375C180.674 207.777 181.731 206.722 181.731 205.421V196.928C181.731 195.183 180.312 193.765 178.567 193.765H176.72ZM179.375 209.128H176.72C174.676 209.128 173.014 207.465 173.014 205.421V196.121C173.014 194.077 174.676 192.414 176.72 192.414H178.567C181.056 192.414 183.082 194.439 183.082 196.928V205.421C183.082 207.465 181.419 209.128 179.375 209.128Z" fill="#DAEBE3"/>
<path d="M170.659 210.362H170.125C168.451 210.362 167.094 209.004 167.094 207.332V198.264C167.094 196.592 168.451 195.234 170.125 195.234H170.659C172.333 195.234 173.69 196.592 173.69 198.264V207.332C173.69 209.004 172.333 210.362 170.659 210.362Z" fill="#1B3233"/>
<path d="M170.124 195.909C168.826 195.909 167.769 196.967 167.769 198.264V207.332C167.769 208.629 168.826 209.688 170.124 209.688H170.659C171.958 209.688 173.014 208.629 173.014 207.332V198.264C173.014 196.967 171.958 195.909 170.659 195.909H170.124ZM170.659 211.039H170.124C168.081 211.039 166.418 209.376 166.418 207.332V198.264C166.418 196.223 168.081 194.56 170.124 194.56H170.659C172.702 194.56 174.365 196.223 174.365 198.264V207.332C174.365 209.376 172.702 211.039 170.659 211.039Z" fill="#DAEBE3"/>
<path d="M164.063 212.751C162.389 212.751 161.032 211.393 161.032 209.721V200.75C161.032 199.075 162.389 197.717 164.063 197.717C165.737 197.717 167.094 199.075 167.094 200.75V209.721C167.094 211.393 165.737 212.751 164.063 212.751Z" fill="#1B3233"/>
<path d="M164.063 198.394C162.764 198.394 161.707 199.449 161.707 200.75V209.721C161.707 211.018 162.764 212.076 164.063 212.076C165.362 212.076 166.418 211.018 166.418 209.721V200.75C166.418 199.449 165.362 198.394 164.063 198.394ZM164.063 213.425C162.019 213.425 160.356 211.762 160.356 209.721V200.75C160.356 198.706 162.019 197.043 164.063 197.043C166.106 197.043 167.769 198.706 167.769 200.75V209.721C167.769 211.762 166.106 213.425 164.063 213.425Z" fill="#DAEBE3"/>
<path d="M192.963 209.128C192.827 209.128 192.689 209.086 192.569 209.001L183.299 202.328C182.997 202.114 182.928 201.69 183.146 201.388C183.364 201.085 183.785 201.016 184.088 201.234L193.358 207.904C193.661 208.122 193.73 208.545 193.512 208.847C193.38 209.029 193.173 209.128 192.963 209.128Z" fill="#DAEBE3"/>
<path d="M176.493 224.809C176.133 224.809 175.835 224.524 175.818 224.165C175.481 216.593 180.315 213.503 182.487 212.502L178.899 208.931C178.635 208.668 178.634 208.239 178.897 207.976C179.16 207.71 179.587 207.71 179.852 207.973L184.17 212.273C184.341 212.442 184.408 212.69 184.347 212.92C184.286 213.152 184.106 213.337 183.875 213.4C183.586 213.482 176.785 215.508 177.168 224.104C177.184 224.476 176.896 224.79 176.523 224.809C176.513 224.809 176.503 224.809 176.493 224.809Z" fill="#DAEBE3"/>
<path d="M276.593 501.822C276.593 501.822 268.263 396.568 292.307 362.99L370.689 359.698C370.689 359.698 399.142 395.582 396.061 501.135L276.593 501.822Z" fill="#DAEBE3"/>
<path d="M271.093 217.746L261.012 360.054C260.556 366.486 265.037 372.224 271.389 373.319C291.557 376.796 336.208 382.139 381.451 371.883C386.558 370.725 389.826 365.736 388.774 360.608L360.482 222.641C360.482 222.641 309.46 215.43 271.093 217.746Z" fill="#1B3233"/>
<path d="M271.725 218.384L261.683 360.103C261.251 366.22 265.472 371.614 271.501 372.654C293.465 376.44 336.93 381.283 381.302 371.224C386.104 370.135 389.094 365.53 388.112 360.744L359.916 223.246C354.697 222.535 307.561 216.322 271.725 218.384ZM324.757 378.556C302.597 378.556 283.578 376.104 271.274 373.984C264.556 372.826 259.854 366.818 260.338 360.009L270.419 217.697C270.443 217.359 270.715 217.09 271.054 217.072C309.046 214.774 360.064 221.9 360.575 221.973C360.859 222.012 361.086 222.227 361.144 222.505L389.436 360.472C390.567 365.987 387.126 371.287 381.602 372.542C361.875 377.014 342.327 378.556 324.757 378.556Z" fill="#DAEBE3"/>
<path d="M299.806 357.058C299.518 357.058 299.249 356.874 299.161 356.583C299.05 356.227 299.249 355.849 299.606 355.74C339.025 343.551 357.727 298.327 357.911 297.87C358.05 297.525 358.446 297.359 358.791 297.498C359.136 297.637 359.302 298.033 359.163 298.378C358.975 298.838 340.029 344.655 300.005 357.028C299.939 357.049 299.872 357.058 299.806 357.058Z" fill="#DAEBE3"/>
<path d="M336.984 168.744C334.653 165.941 333.075 162.582 332.404 158.996C331.209 152.613 329.909 146.959 329.909 146.959C320.372 154.866 309.623 149.426 309.623 149.426C300.643 156.405 302.27 166.229 302.27 166.229C302.27 166.229 293.915 165.315 294.502 170.704C295.083 176.055 303.135 177.395 303.255 177.416L293.45 217.011C292.836 219.49 294.381 222 296.876 222.544C311.973 225.84 321.437 224.603 326.22 223.327C327.617 222.952 328.043 221.226 327.012 220.21C321.748 215.009 320.859 200.148 320.877 190.388C325.748 191.476 330.245 190.505 332.476 186.027C334.07 182.825 334.493 179.457 334.305 174.398C334.272 173.509 337.565 169.772 336.984 168.744Z" fill="#1B3233"/>
<path d="M300.928 166.846C299.464 166.846 297.103 167.051 295.893 168.261C295.301 168.853 295.065 169.63 295.174 170.631C295.697 175.454 303.289 176.736 303.365 176.748C303.552 176.778 303.716 176.887 303.821 177.041C303.924 177.202 303.957 177.395 303.912 177.577L294.106 217.174C293.852 218.199 294.019 219.261 294.578 220.159C295.134 221.048 295.999 221.662 297.021 221.885C312.324 225.226 321.776 223.814 326.045 222.674C326.46 222.566 326.759 222.266 326.868 221.861C326.98 221.441 326.856 221.002 326.538 220.691C321.262 215.478 320.179 201.333 320.204 190.388C320.204 190.182 320.297 189.989 320.458 189.862C320.618 189.735 320.826 189.686 321.026 189.732C324.66 190.539 329.492 190.503 331.872 185.725C333.332 182.792 333.825 179.624 333.632 174.423C333.611 173.87 334.049 173.168 334.886 171.874C335.413 171.061 336.38 169.57 336.38 169.074C334.028 166.208 332.422 162.77 331.742 159.123C330.859 154.421 329.916 150.073 329.486 148.15C320.99 154.476 311.737 151.077 309.721 150.209C301.511 156.849 302.92 166.026 302.935 166.12C302.969 166.329 302.905 166.54 302.76 166.691C302.615 166.846 302.406 166.924 302.195 166.9C302.18 166.9 301.669 166.846 300.928 166.846ZM314.71 225.341C309.884 225.341 303.936 224.779 296.731 223.204C295.352 222.904 294.179 222.076 293.432 220.872C292.679 219.66 292.452 218.233 292.794 216.851L302.431 177.939C300.329 177.462 294.363 175.684 293.831 170.779C293.677 169.361 294.052 168.194 294.941 167.302C296.686 165.561 299.972 165.452 301.511 165.503C301.321 162.915 301.448 154.926 309.21 148.891C309.412 148.731 309.693 148.704 309.926 148.825C310.032 148.876 320.406 153.962 329.48 146.439C329.659 146.288 329.903 146.245 330.127 146.318C330.348 146.394 330.517 146.578 330.569 146.808C330.581 146.865 331.884 152.547 333.069 158.872C333.716 162.34 335.249 165.603 337.505 168.312C337.532 168.342 337.553 168.376 337.575 168.412C338.079 169.31 337.324 170.595 336.02 172.609C335.6 173.259 335.026 174.145 334.98 174.411C335.183 179.82 334.651 183.17 333.078 186.327C331.022 190.457 326.949 192.178 321.555 191.213C321.585 200.079 322.441 214.746 327.488 219.729C328.153 220.386 328.41 221.314 328.174 222.206C327.941 223.083 327.276 223.745 326.396 223.981C323.641 224.715 319.798 225.341 314.71 225.341Z" fill="#DAEBE3"/>
<path d="M320.88 191.065C320.838 191.065 320.796 191.062 320.756 191.053C316.898 190.34 311.607 186.751 311.383 186.599C311.075 186.388 310.996 185.968 311.205 185.659C311.416 185.354 311.837 185.272 312.145 185.484C312.196 185.52 317.424 189.064 321.001 189.726C321.367 189.792 321.609 190.146 321.543 190.512C321.482 190.839 321.198 191.065 320.88 191.065Z" fill="#DAEBE3"/>
<path d="M146.991 211.674H96.5319C91.4031 211.674 87.2305 207.501 87.2305 202.373V95.5865C87.2305 90.4584 91.4031 86.2857 96.5319 86.2857H128.813C129.186 86.2857 129.489 86.5881 129.489 86.96C129.489 87.3349 129.186 87.6373 128.813 87.6373H96.5319C92.1478 87.6373 88.5811 91.2022 88.5811 95.5865V202.373C88.5811 206.757 92.1478 210.322 96.5319 210.322H146.991C147.364 210.322 147.666 210.625 147.666 211C147.666 211.371 147.364 211.674 146.991 211.674Z" fill="#DAEBE3"/>
<path d="M260.172 211.674H207.895C207.522 211.674 207.22 211.371 207.22 211C207.22 210.625 207.522 210.322 207.895 210.322H260.172C264.556 210.322 268.124 206.757 268.124 202.373V186.039C268.124 185.667 268.426 185.365 268.798 185.365C269.173 185.365 269.475 185.667 269.475 186.039V202.373C269.475 207.501 265.3 211.674 260.172 211.674Z" fill="#DAEBE3"/>
<path d="M268.798 186.717C268.426 186.717 268.124 186.414 268.124 186.039V95.5867C268.124 91.2024 264.556 87.6375 260.172 87.6375H207.895C207.522 87.6375 207.22 87.3351 207.22 86.9602C207.22 86.5883 207.522 86.2859 207.895 86.2859H260.172C265.3 86.2859 269.475 90.4586 269.475 95.5867V186.039C269.475 186.414 269.173 186.717 268.798 186.717Z" fill="#1B3233"/>
<path d="M207.895 87.6377H150.568C150.195 87.6377 149.893 87.3353 149.893 86.9604C149.893 86.5885 150.195 86.2861 150.568 86.2861H207.895C208.268 86.2861 208.57 86.5885 208.57 86.9604C208.57 87.3353 208.268 87.6377 207.895 87.6377Z" fill="#DAEBE3"/>
<path d="M232.639 194.718H211.249C210.876 194.718 210.574 194.415 210.574 194.04C210.574 193.669 210.876 193.366 211.249 193.366H232.639C233.012 193.366 233.314 193.669 233.314 194.04C233.314 194.415 233.012 194.718 232.639 194.718Z" fill="#DAEBE3"/>
<path d="M158.072 194.718H114.761C114.388 194.718 114.085 194.415 114.085 194.04C114.085 193.669 114.388 193.366 114.761 193.366H158.072C158.445 193.366 158.747 193.669 158.747 194.04C158.747 194.415 158.445 194.718 158.072 194.718Z" fill="#DAEBE3"/>
<path d="M119.494 173.244H183.022L119.494 107.709V173.244ZM184.617 174.595H118.819C118.446 174.595 118.144 174.293 118.144 173.918V106.043C118.144 105.768 118.311 105.52 118.566 105.417C118.82 105.314 119.112 105.375 119.304 105.574L185.102 173.449C185.291 173.646 185.345 173.933 185.239 174.184C185.133 174.432 184.888 174.595 184.617 174.595Z" fill="#DAEBE3"/>
<path d="M125.028 173.918C125.028 177.35 122.248 180.128 118.819 180.128C115.39 180.128 112.61 177.35 112.61 173.918C112.61 170.489 115.39 167.71 118.819 167.71C122.248 167.71 125.028 170.489 125.028 173.918Z" fill="#DAEBE3"/>
<path d="M190.826 173.918C190.826 177.35 188.046 180.128 184.617 180.128C181.188 180.128 178.408 177.35 178.408 173.918C178.408 170.489 181.188 167.71 184.617 167.71C188.046 167.71 190.826 170.489 190.826 173.918Z" fill="#DAEBE3"/>
<path d="M125.028 106.042C125.028 109.471 122.248 112.253 118.819 112.253C115.39 112.253 112.61 109.471 112.61 106.042C112.61 102.613 115.39 99.8348 118.819 99.8348C122.248 99.8348 125.028 102.613 125.028 106.042Z" fill="#DAEBE3"/>
<path d="M136.053 359.873C127.739 359.873 120.976 366.637 120.976 374.949V478.337C120.976 486.652 127.739 493.416 136.053 493.416H210.021C218.335 493.416 225.098 486.652 225.098 478.337V374.949C225.098 366.637 218.335 359.873 210.021 359.873H136.053ZM210.021 494.765H136.053C126.995 494.765 119.625 487.396 119.625 478.337V374.949C119.625 365.893 126.995 358.522 136.053 358.522H210.021C219.08 358.522 226.449 365.893 226.449 374.949V478.337C226.449 487.396 219.08 494.765 210.021 494.765Z" fill="#DAEBE3"/>
<path d="M155.815 473.251H132.84V397.747H155.815V473.251Z" fill="#DAEBE3"/>
<path d="M184.525 473.251H161.55V376.911H184.525V473.251Z" fill="#DAEBE3"/>
<path d="M213.235 473.251H190.26V428.238H213.235V473.251Z" fill="#DAEBE3"/>
<path d="M507.416 300.479C507.244 300.479 507.072 300.412 506.939 300.282C506.675 300.016 506.675 299.59 506.939 299.327L564.201 242.065C564.464 241.802 564.89 241.802 565.156 242.065C565.419 242.328 565.419 242.757 565.156 243.02L507.894 300.282C507.761 300.412 507.589 300.479 507.416 300.479Z" fill="#DAEBE3"/>
<path d="M446.223 361.672C446.048 361.672 445.876 361.605 445.746 361.475C445.48 361.212 445.48 360.783 445.746 360.52L482.846 323.42C483.109 323.153 483.538 323.153 483.802 323.42C484.065 323.683 484.065 324.109 483.802 324.375L446.701 361.475C446.568 361.605 446.396 361.672 446.223 361.672Z" fill="#DAEBE3"/>
<path d="M540.849 237.345C540.676 237.345 540.504 237.279 540.371 237.146C540.108 236.883 540.108 236.456 540.371 236.193L564.678 211.886C569.247 207.314 569.247 199.879 564.678 195.31C562.208 192.84 560.85 189.556 560.85 186.067C560.85 182.575 562.208 179.291 564.678 176.824L598.063 143.439C598.326 143.176 598.752 143.176 599.018 143.439C599.281 143.702 599.281 144.132 599.018 144.395L565.634 177.779C563.42 179.992 562.199 182.934 562.199 186.067C562.199 189.196 563.42 192.142 565.634 194.355C570.729 199.45 570.729 207.744 565.634 212.838L541.327 237.146C541.194 237.279 541.021 237.345 540.849 237.345Z" fill="#DAEBE3"/>
<path d="M388.284 203.747C388.112 203.747 387.939 203.68 387.806 203.547C387.543 203.284 387.543 202.858 387.806 202.592L445.31 145.088C445.576 144.825 446.003 144.825 446.266 145.088C446.529 145.351 446.529 145.78 446.266 146.043L388.762 203.547C388.629 203.68 388.457 203.747 388.284 203.747Z" fill="#DAEBE3"/>
<path d="M297.586 66.1274C297.414 66.1274 297.241 66.0609 297.108 65.9309C296.845 65.6648 296.845 65.2385 297.108 64.9754L343.694 18.3929C343.957 18.1299 344.383 18.1299 344.646 18.3929C344.912 18.656 344.912 19.0823 344.646 19.3454L298.064 65.9309C297.934 66.0609 297.759 66.1274 297.586 66.1274Z" fill="#DAEBE3"/>
<path d="M528.769 255.989C524.841 255.989 521.648 252.802 521.648 248.88C521.648 244.958 524.841 241.772 528.769 241.772C529.141 241.772 529.443 242.074 529.443 242.446C529.443 242.818 529.141 243.12 528.769 243.12C525.588 243.12 523 245.705 523 248.88C523 252.055 525.588 254.64 528.769 254.64C531.95 254.64 534.538 252.055 534.538 248.88C534.538 248.508 534.841 248.206 535.213 248.206C535.584 248.206 535.887 248.508 535.887 248.88C535.887 252.802 532.694 255.989 528.769 255.989Z" fill="#DAEBE3"/>
<path d="M436.578 192.229C436.402 192.229 436.23 192.162 436.1 192.029L433.158 189.084C432.892 188.818 432.892 188.392 433.158 188.129C433.421 187.866 433.847 187.866 434.113 188.129L437.055 191.074C437.318 191.34 437.318 191.766 437.052 192.029C436.922 192.162 436.75 192.229 436.578 192.229Z" fill="#DAEBE3"/>
<path d="M446.873 202.537C446.701 202.537 446.528 202.474 446.395 202.341L443.453 199.396C443.19 199.129 443.19 198.703 443.453 198.44C443.719 198.177 444.146 198.177 444.409 198.44L447.351 201.385C447.614 201.651 447.614 202.078 447.351 202.341C447.218 202.474 447.045 202.537 446.873 202.537Z" fill="#DAEBE3"/>
<path d="M433.636 202.537C433.46 202.537 433.288 202.474 433.158 202.341C432.892 202.078 432.892 201.651 433.158 201.385L436.1 198.44C436.363 198.174 436.789 198.177 437.052 198.44C437.318 198.703 437.318 199.129 437.055 199.396L434.113 202.341C433.98 202.474 433.808 202.537 433.636 202.537Z" fill="#DAEBE3"/>
<path d="M443.931 192.229C443.759 192.229 443.586 192.162 443.453 192.029C443.19 191.766 443.19 191.34 443.453 191.074L446.395 188.129C446.658 187.866 447.088 187.866 447.351 188.129C447.614 188.392 447.614 188.818 447.351 189.084L444.409 192.029C444.279 192.162 444.107 192.229 443.931 192.229Z" fill="#DAEBE3"/>
<path d="M332.422 46.5283C332.25 46.5283 332.077 46.4618 331.944 46.3287C331.681 46.0657 331.681 45.6393 331.944 45.3763L366.934 10.3865C367.197 10.1204 367.626 10.1204 367.889 10.3865C368.152 10.6495 368.152 11.0759 367.889 11.3419L332.9 46.3287C332.767 46.4618 332.594 46.5283 332.422 46.5283Z" fill="#DAEBE3"/>
</svg>
